<svg width="954" height="727" viewBox="0 0 954 727" fill="none" xmlns="http://www.w3.org/2000/svg">
<rect width="954" height="727" fill="#2F431E"/>
<g clip-path="url(#clip0_476_2)">
<path d="M493.48 592.678L500.988 594.399L507.043 592.678L512.856 594.399H520.366L526.179 598.386H532.718L543.862 606.124L549.191 614.569L565.42 615.506L565.945 618.4L561.422 621.33L561.502 625.513L559.203 628.25L566.065 630.36L559.604 639.274L555.971 650.533L547.736 661.945L536.513 673.048L528.44 676.018L519.718 683.524L516.973 692.906L511.483 701.036L501.794 708.541H497.759L499.049 702.6L497.759 697.753L500.826 694.783L506.8 691.341L504.055 688.371L499.697 687.746L496.579 685.401L494.366 678.52L482.096 672.736L480.319 668.357L474.829 667.42L472.084 664.603L468.852 664.759L466.591 661.008L462.072 656.63L457.066 661.321L453.512 660.696L454.966 655.849L440.916 643.652L436.072 643.028L432.52 645.373L429.238 647.247L427.084 645.894L431.338 642.712L431.499 640.367L432.735 638.909L435.373 638.597L441.024 633.541L444.471 627.702L447.861 627.13L449.878 622.074L455.046 616.602L458.195 614.805L460.7 615.506L461.588 613.396L459.65 611.443L467.802 606.047L469.984 606.672L473.94 604.014L474.908 601.28L481.369 598.775L486.375 598.074L487.181 595.728L490.087 595.416L490.814 593.07L493.48 592.678Z" stroke="#80B357" stroke-width="3" stroke-linecap="round" stroke-linejoin="round"/>
<path d="M484.411 538.005L488.231 536.076L490.653 526.85L494.366 525.285L496.579 518.095L505.832 512.777L512.454 511.683L521.334 513.092L523.111 510.903L533.123 513.873L537.484 513.248L544.909 515.278L546.847 518.252L561.704 518.095L567.032 522.159L568.326 534.667L574.461 543.112L572.845 548.741H585.605L587.056 551.086L585.279 554.84H592.546L595.506 559.372L590.231 563.647L585.712 571.152L574.138 572.04L569.777 575.947H567.032L563.32 572.508L555.408 573.914L551.37 572.196L546.847 575.947H542.003L537.645 578.605L538.935 582.515L535.062 584.077L533.929 581.891L526.662 582.515L522.466 580.013L511.483 578.136L506.155 579.073L502.12 575.947L497.032 576.728L494.097 571.464L491.836 564.795L488.607 562.71L481.716 565.42L479.351 562.085L483.01 557.29L482.365 551.763L484.948 543.737L484.411 538.005Z" stroke="#80B357" stroke-width="3" stroke-linecap="round" stroke-linejoin="round"/>
<path d="M493.48 592.678L496.225 587.987L495.014 584.705L497.032 576.728L502.12 575.947L506.155 579.073L511.483 578.136L522.466 580.013L526.662 582.515L533.929 581.891L535.061 584.077L538.935 582.515L537.645 578.605L542.003 575.947H546.847L551.369 572.196L555.408 573.914L563.32 572.508L567.032 575.947H569.777L574.138 572.04L585.712 571.152L585.279 574.594L587.432 575.531L587.54 576.991L584.311 582.411L583.989 585.017L585.279 586.474L584.634 590.02L585.605 595.492L583.505 598.15L583.182 601.904L585.766 605.343L582.373 617.071L574.138 622.074L566.065 630.36L559.203 628.25L561.502 625.513L561.422 621.33L565.945 618.4L565.42 615.506L549.191 614.569L543.862 606.124L532.718 598.386H526.179L520.366 594.399H512.856L507.043 592.678L500.988 594.399L493.48 592.678Z" stroke="#80B357" stroke-width="3" stroke-linecap="round" stroke-linejoin="round"/>
<path d="M505.832 512.777V510.275L516.973 505.428L523.918 496.829V493.859L525.856 492.451L528.44 488.856L527.795 485.726L532.962 476.188L537.427 472.437H541.68L543.619 467.121L552.337 461.962L555.247 464.307L558.637 463.367L561.543 465.088L569.455 464.307L571.232 466.181H574.138L573.17 468.371L574.138 471.5L576.722 468.527L578.822 468.683V473.218L580.921 473.686L582.695 468.683L592.331 467.538L594.269 468.683L597.821 468.214V465.869L605.303 465.348L609.395 469.571L608.642 473.374L611.333 474.783L612.301 477.284L609.771 480.567L613.971 491.253L618.275 489.793L623.173 493.284L620.052 496.725L620.697 502.458L618.547 506.003L624.896 511.527V517.26H631.895L636.847 515.487L635.338 512.985L637.277 510.903L642.122 512.777L648.686 509.546L653.424 508.193L655.147 511.944L658.268 512.673L660.744 510.903L663.328 512.048L664.191 514.133L661.174 516.895L654.986 518.876L652.08 523.203L653.155 524.817L651.918 525.861L648.851 525.077L644.866 528.415L641.394 529.82L641.799 532.478L640.183 533.574L636.227 532.322L630.978 531.933L628.154 533.966L627.347 537.093L625.488 536.701L624.843 535.451L614.508 541.156L612.813 544.518L597.659 553.744L597.767 556.975L595.506 559.372L592.546 554.84H585.279L587.056 551.086L585.605 548.741H572.845L574.461 543.113L568.326 534.667L567.032 522.159L561.704 518.095L546.847 518.252L544.909 515.278L537.484 513.248L533.123 513.873L523.111 510.903L521.334 513.092L512.454 511.684L505.832 512.777Z" stroke="#80B357" stroke-width="3" stroke-linecap="round" stroke-linejoin="round"/>
<path d="M653.424 508.193L669.681 502.353L680.983 501.208L682.169 503.918L697.563 496.413L695.41 493.599L698.746 489.428L700.039 482.34L703.806 479.63L707.36 480.254L708.005 486.091L714.788 488.072L720.035 488.151L720.601 490.497L718.744 492.215L720.117 495.733L719.873 500.896L716.806 504.099L711.316 504.803L702.594 511.604L702.031 514.185L704.049 515.278L701.949 517.78L692.342 517.079L682.975 518.797L677.324 517.78L676.679 519.424H674.579L671.025 517.051L663.866 519.424L661.174 516.895L664.191 514.133L663.328 512.048L660.744 510.902L658.268 512.672L655.147 511.944L653.424 508.193Z" stroke="#80B357" stroke-width="3" stroke-linecap="round" stroke-linejoin="round"/>
<path d="M703.805 479.63L705.987 474.703L704.896 471.889L705.987 469.623H713.011L714.383 465.165L716.806 463.836V461.022L720.6 457.035L721.568 452.111L716.723 446.011L717.21 444.526L720.6 444.839L721.568 442.729L719.551 442.025L719.794 438.506H717.128L718.298 433.815L720.923 432.878L724.275 433.739L724.999 432.682L723.304 430.885L724.152 429.789L726.172 430.416L727.946 429.048L732.994 429.712L742.964 435.848L741.592 443.433L743.448 453.204L741.19 459.929L737.231 461.49L733.923 465.4L734.647 470.012L731.903 475.643L727.545 480.959L724.8 481.351L723.99 484.633L720.034 488.152L714.788 488.072L708.005 486.091L707.36 480.255L703.805 479.63Z" stroke="#80B357" stroke-width="3" stroke-linecap="round" stroke-linejoin="round"/>
<path d="M732.994 429.712L734.812 427.091L727.706 419.794L728.459 411.248H732.981L734.271 409.787L732.336 408.33L733.304 405.411L739.331 400.512L739.872 396.237L731.473 391.859L720.816 389.253L717.694 391.13L714.14 390.818L714.681 386.335L706.712 379.454L701.978 380.915L699.394 378.621L697.025 380.079L684.645 371.533H680.553L675.816 374.347L668.818 371.533L670.434 365.902L663.005 364L654.287 367.362L648.149 372.886L645.135 372.99L636.202 379.871L630.601 382.06L628.666 380.704L632.002 377.994L631.357 375.18L627.05 376.12L626.405 373.407L623.173 372.157L621.775 374.139L622.85 378.517L621.775 379.246L616.393 377.473L614.992 380.811L616.5 382.997L614.992 385.603V387.896L617.576 388.836V393.319L608.427 395.821V399.676L605.733 403.014V404.68L609.18 406.765L611.036 413.333L604.496 419.041L605.546 421.855L608.209 422.011L609.18 424.277L606.757 427.719L608.209 431.549L597.795 438.975L590.851 436.709H579.388L575.672 438.038L571.554 442.181L569.455 439.759L565.201 442.181L560.306 441.268L559.335 442.989L555.623 442.573L552.068 446.951L551.746 449.974L548.41 450.807L543.78 457.323L542.271 460.917L543.619 467.121L552.337 461.962L555.246 464.307L558.636 463.367L561.543 465.088L569.455 464.307L571.232 466.181H574.138L573.17 468.371L574.138 471.5L576.722 468.527L578.821 468.683V473.218L580.921 473.686L582.695 468.683L592.331 467.538L594.269 468.683L597.821 468.214V465.869L605.303 465.348L609.395 469.571L608.642 473.374L611.333 474.783L612.301 477.284L609.771 480.567L613.971 491.253L618.274 489.793L623.173 493.284L620.052 496.725L620.697 502.457L618.546 506.003L624.896 511.527V517.26H631.895L636.847 515.487L635.338 512.985L637.277 510.903L642.121 512.777L648.686 509.546L653.424 508.193L669.681 502.353L680.983 501.208L682.169 503.918L697.563 496.413L695.41 493.599L698.746 489.428L700.039 482.34L703.806 479.63L705.987 474.703L704.896 471.889L705.987 469.623H713.011L714.383 465.165L716.806 463.836V461.022L720.601 457.035L721.568 452.111L716.724 446.011L717.211 444.526L720.601 444.839L721.568 442.729L719.551 442.025L719.794 438.506H717.128L718.298 433.815L720.923 432.878L724.275 433.739L724.999 432.682L723.304 430.885L724.152 429.789L726.173 430.416L727.947 429.048L732.994 429.712Z" stroke="#80B357" stroke-width="3" stroke-linecap="round" stroke-linejoin="round"/>
<path d="M543.78 457.323L539.501 452.031H531.991L519.639 445.935L516.733 442.416L510.677 443.589L508.255 440.631L512.372 437.725L511.161 435.536L506.316 436.317L505.105 431.782L500.988 430.064L496.225 431.237L490.331 428.735L492.43 425.061L495.254 424.513L496.579 417.32L493.721 416.772L488.231 424.121H484.357L479.753 421.071L476.04 424.513L467.078 423.496L460.187 418.232L453.189 415.939L446.517 418.336L441.024 418.545L435.749 426.466L431.012 427.195L424.662 420.317L422.67 421.306L424.447 427.406L427.837 434.911L423.963 447.264L417.341 461.649L422.025 466.025L417.341 468.527V470.716L421.702 477.284L422.992 489.793L419.817 501.104L420.893 502.978L425.522 502.145L427.084 504.543L440.379 505.584L447.054 502.145L451.899 505.688L457.926 506.107L460.187 508.193L460.295 510.694L462.018 512.464L461.048 516.739L462.986 521.742L463.309 528.31L465.247 531.853L464.495 535.92L470.522 536.128L478.595 533.73L484.411 538.005L488.231 536.076L490.653 526.85L494.366 525.285L496.579 518.095L505.832 512.777V510.275L516.973 505.428L523.917 496.829V493.859L525.856 492.451L528.44 488.856L527.794 485.726L532.962 476.188L537.427 472.437H541.68L543.619 467.121L542.272 460.917L543.78 457.323Z" stroke="#80B357" stroke-width="3" stroke-linecap="round" stroke-linejoin="round"/>
<path d="M505.105 431.782L506.8 429.436L503.087 423.028L507.448 409.423L515.844 403.951L512.615 400.824L520.366 393.319H526.179L530.862 387.376L531.507 379.715L535.545 376.744L537.806 378.621L542.272 376.744V367.206L546.364 360.95L545.396 355.322L550.241 346.568L549.27 342.657L551.853 339.219L554.114 332.651H559.282L556.214 339.687L562.188 341.561L571.716 347.661V342.814L575.106 338.591L578.983 341.405L580.921 338.279L586.572 342.814V348.129L592.223 344.222L593.356 348.598L595.939 346.88L598.523 347.349L601.751 351.571L603.367 349.226L601.751 344.534L603.367 343.282L607.564 347.036L618.221 342.033H626.62V348.598L628.233 352.352L626.781 361.422L633.239 366.113L631.357 375.18L627.05 376.12L626.405 373.407L623.173 372.157L621.775 374.139L622.85 378.517L621.775 379.246L616.393 377.473L614.992 380.811L616.501 382.997L614.992 385.603V387.896L617.576 388.836V393.319L608.427 395.821V399.676L605.733 403.014V404.68L609.18 406.765L611.036 413.333L604.496 419.041L605.546 421.855L608.209 422.011L609.18 424.277L606.757 427.719L608.209 431.549L597.795 438.975L590.851 436.709H579.388L575.672 438.038L571.555 442.181L569.455 439.759L565.202 442.181L560.306 441.268L559.335 442.989L555.623 442.573L552.068 446.951L551.746 449.974L548.41 450.807L543.78 457.323L539.501 452.031H531.991L519.639 445.935L516.733 442.417L510.677 443.589L508.255 440.631L512.372 437.725L511.161 435.536L506.316 436.317L505.105 431.782Z" stroke="#80B357" stroke-width="3" stroke-linecap="round" stroke-linejoin="round"/>
<path d="M551.853 339.219L548.625 334.917L550.241 330.225L549.592 318.421L547.331 316.232L547.736 311.62L549.592 309.823L550.402 300.441L556.859 286.524L442.048 278.394L440.11 275.421H436.233V272.45L433.004 269.636H429.775V267.291H426.708L425.092 261.038V256.816L421.863 251.656L419.602 244.151L416.212 241.961L414.758 245.088V247.746L412.013 251.187L414.435 255.563L413.629 260.723L412.013 262.131V268.387L355.496 267.759L357.431 269.793L356.947 275.736L354.525 276.205V278.55L357.431 281.676L355.98 284.959L356.786 288.088L355.17 290.59L355.335 293.56L357.593 296.062L356.141 306.694L375.517 306.381L376.81 308.727L383.754 309.039L385.045 313.418L381.386 317.849L381.816 321.6L384.292 323.268L385.26 329.42L387.951 330.878L385.582 333.171L382.353 334.944L382.138 341.405L378.344 343.751L376.892 350.163L370.998 353.917L376.971 360.28L374.065 363.434L378.426 371.116L379.394 379.09L374.065 380.027L379.555 386.127L380.848 399.884L410.074 401.605L412.819 399.728L413.951 403.639L410.074 410.047L412.819 418.024L417.341 422.559L422.67 421.307L424.662 420.318L431.012 427.195L435.749 426.466L441.024 418.545L446.517 418.336L453.189 415.939L460.187 418.232L467.078 423.496L476.04 424.513L479.753 421.071L484.357 424.121H488.231L493.721 416.772L496.579 417.32L495.254 424.513L492.43 425.061L490.331 428.735L496.225 431.237L500.988 430.064L505.105 431.782L506.8 429.436L503.087 423.028L507.448 409.423L515.844 403.951L512.615 400.824L520.366 393.319H526.179L530.862 387.376L531.507 379.715L535.545 376.744L537.806 378.621L542.272 376.744V367.206L546.364 360.95L545.396 355.322L550.241 346.568L549.27 342.657L551.853 339.219Z" stroke="#80B357" stroke-width="3" stroke-linecap="round" stroke-linejoin="round"/>
<path d="M355.496 267.759L351.78 266.198L349.519 269.012L342.901 264.789L341.768 259.63H337.408L336.601 255.719L332.727 253.374H319.971L316.739 259.63H313.833V264.008L310.281 266.666V270.576L297.363 271.67V275.421L292.68 279.643L290.903 276.205L287.674 276.673L286.864 279.643L284.929 278.862L282.184 279.643L281.536 281.364L277.823 278.706L270.395 278.394L268.618 283.085L262.806 285.431L266.844 287.617L272.817 286.055L279.114 285.431L284.929 286.836L286.381 283.397L287.835 283.241L289.774 285.899L290.58 292.464L287.835 296.531V300.909L290.741 306.069L289.125 309.508L290.741 316.076L293.648 319.202L295.747 325.614L304.466 329.053V332.807L312.381 334.684L315.449 331.554L319.322 332.338L324.651 337.498L328.205 335.152L331.595 341.093L340.639 345.159L345.968 345.315L350.164 351.1L364.053 351.727L370.998 353.917L376.892 350.163L378.344 343.751L382.138 341.405L382.354 334.944L385.582 333.171L387.951 330.878L385.26 329.42L384.292 323.269L381.816 321.6L381.386 317.849L385.045 313.418L383.754 309.039L376.81 308.727L375.517 306.381L356.141 306.694L357.593 296.062L355.335 293.56L355.17 290.59L356.786 288.088L355.98 284.959L357.431 281.676L354.525 278.55V276.205L356.948 275.736L357.431 269.793L355.496 267.759Z" stroke="#80B357" stroke-width="3" stroke-linecap="round" stroke-linejoin="round"/>
<path d="M262.806 285.431L230.831 272.763L200.312 255.879L158.813 247.277L139.434 238.155L140.62 241.857L136.474 243.107V246.025L139.488 249.154L141.778 250.404L140.162 252.36L142.827 255.487L143.713 260.098L148.074 265.337L151.464 266.666L154.212 270.576L154.13 273.936L149.446 279.019L159.053 279.254L165.353 280.504L168.097 285.899L167.614 289.025L184.004 288.869L196.033 279.41L197.89 280.112L197.567 284.282L195.575 286.003V306.694L197.621 305.913L200.043 308.206L203.759 307.946L209.034 305.392L212.692 306.537L222.22 306.017L228.248 306.902L229.917 309.664L237.023 306.798L240.843 300.753L246.494 301.69L248.433 299.345L253.923 295.125L258.767 294.029L266.844 287.617L262.806 285.431Z" stroke="#80B357" stroke-width="3" stroke-linecap="round" stroke-linejoin="round"/>
<path d="M416.212 241.961L415.51 237.895L411.206 233.62L410.236 229.453L414.758 226.115L448.427 152.521L452.301 150.176L453.136 147.934L450.552 146.997L446.732 150.647L442.425 151.532L440.218 150.436L440.164 146.997L434.298 142.202L429.507 142.827L420.14 136.991L420.624 133.184L418.957 130.787L415.188 133.708L411.475 130.474L411.206 127.608L405.932 123.438V119.895L403.13 117.602V107.907H383.106L376.326 121.46L378.48 124.794L374.603 126.047V128.025H370.403V125.315L364.161 121.04L357.918 123.753L355.765 127.608L355.009 133.864L358.348 138.659L356.195 140.637L353.289 136.782L349.627 137.407L347.151 131.571L339.077 126.255V123.753L343.169 124.586L345.645 120.311L340.156 109.368L340.371 105.405L338.325 101.443L340.693 95.8149L337.408 87.3973L333.856 84.4271L335.956 82.1612L336.361 77.2343L332.484 75.6696L330.384 76.8423L328.205 73.7956L324.249 73.9518L319.806 75.2011L316.821 77.3139L313.026 76.6862L311.41 78.0151L311.17 83.4105L307.132 86.7726L305.032 85.9918L299.732 90.6553L297.901 89.7704L291.924 92.3762L291.709 96.0231L289.341 95.8149L287.943 97.1714L287.835 99.7772L285.628 101.131L284.768 99.2567L286.058 97.1714L285.198 94.93L282.453 94.3574L275.777 98.9933L271.793 99.1005L261.945 90.6033L257.907 91.5403L258.176 83.5146L257.746 80.3882L255.592 79.8156L254.195 78.7715L254.356 74.2365L252.471 72.3625L250.371 74.0283L248.594 76.2697H246.118L242.836 79.7115L238.744 77.418L237.561 79.2399L238.045 81.4814L217.752 82.005L215.491 80.7006L209.087 82.2132L209.249 92.7406L218.559 93.157L221.196 96.1272L221.629 101.314L218.157 101.783L215.33 99.7497L211.858 101.627L205.963 102.408L205.561 115.308L208.468 118.75L213.717 121.797L213.796 126.099L216.462 130.006L217.186 135.949L206.934 187.392L202.168 188.329L200.473 185.984L195.145 185.827L191.717 187.113L189.494 189.658L182.793 190.283L178.837 192.08L173.265 192.16L164.869 197.007L156.147 203.027L154.047 208.499V212.722L150.335 216.629L148.855 220.435L151.331 226.323L149.715 228.773L146.433 229.192L140.728 233.36L139.434 238.155L158.813 247.277L200.312 255.878L230.831 272.763L262.806 285.43L268.618 283.085L270.395 278.394L277.823 278.706L281.536 281.364L282.184 279.643L284.929 278.862L286.864 279.643L287.674 276.673L290.903 276.204L292.68 279.643L297.363 275.42V271.669L310.281 270.576V266.666L313.833 264.008V259.629H316.739L319.971 253.374H332.727L336.601 255.719L337.408 259.629H341.768L342.901 264.789L349.519 269.012L351.78 266.197L355.496 267.759L412.013 268.387V262.131L413.629 260.723L414.435 255.563L412.013 251.187L414.758 247.745V245.088L416.212 241.961Z" stroke="#80B357" stroke-width="3" stroke-linecap="round" stroke-linejoin="round"/>
<path d="M403.13 107.907L403.456 90.1348L396.429 87.3208L391.021 82.1612L388.277 78.4071L388.599 73.0117L383.995 66.2109V59.6427L386.74 53.3104L386.876 48.751L390.642 45.6766L391.183 41.0376L387.951 37.3356L389.459 34.8859L387.306 33.2202L381.117 32.228L383.701 26.652L383.593 22.5335L380.308 19.4592L376.165 20.7637L371.32 20.1359L373.474 25.2435L366.798 29.414L366.637 32.5924L361.093 32.228L356.786 34.3654L356.356 36.9712L351.942 37.207L350.164 39.084L347.906 38.3797L345.725 40.2537L341.041 38.0674L337.569 40.958L334.584 41.4265L333.211 46.433L331.355 48.2304H329.9L329.012 45.5725L326.51 42.9147L323.844 42.5227L321.906 43.9282L319.484 42.5227L312.704 43.227L309.633 39.3167L302.126 39.3963L300.269 36.9712L298.654 36.5792L298.17 37.9112L303.982 45.101L306.648 45.9614L309.554 49.4797L308.343 52.5296L309.07 57.4564L311.492 60.6593L312.865 63.7092L311.976 68.3206L317.223 70.4335L323.278 69.2607L324.249 73.9518L328.205 73.7956L330.384 76.8424L332.484 75.6696L336.361 77.2343L335.956 82.1612L333.856 84.4271L337.408 87.3973L340.693 95.8149L338.325 101.443L340.371 105.405L340.156 109.368L345.645 120.311L343.169 124.586L339.077 123.753V126.255L347.151 131.571L349.627 137.407L353.289 136.782L356.195 140.637L358.348 138.659L355.009 133.864L355.765 127.608L357.918 123.753L364.161 121.04L370.403 125.315V128.025H374.603V126.047L378.48 124.794L376.326 121.46L383.106 107.907H403.13Z" stroke="#80B357" stroke-width="3" stroke-linecap="round" stroke-linejoin="round"/>
<path d="M474.345 69.3373L476.929 80.7527L485.002 81.5335L489.36 87.0085L497.436 88.1016L500.02 90.7595V95.6068L505.51 100.298L504.865 105.457L508.738 114.527L513.261 117.81V121.876L516.489 122.657L515.199 127.504H518.105V131.102L523.756 133.604L529.085 132.976L531.185 130.475V126.255L536.352 119.999L537.968 115.308L543.296 111.242L547.98 110.461L552.337 105.926L553.469 101.471L558.959 99.6732L562.51 94.3575L563.32 89.354L561.704 81.3773L555.73 80.4404V76.5301L551.853 72.9352L547.818 74.4969L541.196 55.4233V43.0709L535.653 33.6887L532.532 34.5216L531.668 40.4651L529.3 41.6103L528.762 43.9038L526.179 45.6767L520.151 55.163L516.005 64.1012L516.41 67.3837L508.982 73.4833H503.331L501.231 70.6662L497.759 72.5433L494.853 70.902H492.108L489.12 73.2476L483.386 73.4833L478.542 71.294L477.169 69.025L474.345 69.3373Z" stroke="#80B357" stroke-width="3" stroke-linecap="round" stroke-linejoin="round"/>
<path d="M556.859 286.524L559.927 276.673L564.771 269.168H568.81L574.622 260.41L576.722 250.56L571.716 247.433L571.555 244.307L575.267 240.553L574.945 235.081L577.851 231.954H583.021L585.927 225.074H589.64L593.678 211.785L589.801 207.874L585.766 208.967L582.695 206.622L588.833 203.183L599.329 193.02H603.367L612.731 181.293L613.702 175.04L619.837 168.159V160.967L624.036 156.9V153.149L627.588 149.707L629.365 141.421L629.042 133.604L614.024 126.411L599.329 122.969L596.423 125.315L588.024 121.251L589.479 118.278L587.54 115.933L581.083 116.873L570.426 111.401L567.032 105.77L558.959 106.866L560.575 102.643L558.959 99.6731L553.469 101.471L552.337 105.926L547.98 110.461L543.296 111.242L537.968 115.308L536.352 119.999L531.185 126.255V130.474L529.085 132.976L523.756 133.604L518.105 131.102V127.504H515.199L516.489 122.657L513.261 121.876V117.81L508.738 114.527L504.865 105.457L505.51 100.298L500.02 95.6067V90.7594L497.436 88.1016L489.36 87.0084L485.002 81.5334L476.929 80.7526L474.345 69.3372L472.163 67.0713L466.512 67.6959L465.057 69.2607L458.679 69.4168L454.966 67.8521L452.301 72.1543L456.178 76.0615L455.45 79.4237L452.544 80.0483L446.327 77.8589L440.916 78.9552L434.054 76.922L430.019 78.0151L427.192 82.3173L423.558 81.2211L418.957 82.8624L418.23 85.9122L413.547 84.2709L410.719 86.3041L410.318 89.8224L403.456 90.1348L403.13 107.907V117.602L405.932 119.895V123.438L411.206 127.608L411.475 130.474L415.188 133.708L418.957 130.787L420.624 133.184L420.14 136.991L429.507 142.827L434.298 142.202L440.164 146.997L440.217 150.436L442.425 151.532L446.732 150.647L450.552 146.997L453.136 147.934L452.301 150.176L448.427 152.521L414.758 226.115L410.236 229.453L411.206 233.62L415.51 237.895L416.212 241.961L419.602 244.151L421.863 251.656L425.092 256.815V261.038L426.708 267.291H429.776V269.636H433.004L436.233 272.45V275.42H440.11L442.048 278.394L556.859 286.524Z" stroke="#80B357" stroke-width="3" stroke-linecap="round" stroke-linejoin="round"/>
<path d="M588.833 203.183L593.194 205.997L595.939 204.592H598.845L599.813 207.406L604.819 209.28V214.127L606.757 216.629L607.564 223.822L604.658 236.174L601.106 238.835L601.913 241.181H604.819L606.919 243.211L605.79 245.712L614.024 255.095L617.414 251.968H621.614L623.714 254.314L622.904 259.161L617.414 260.254L615.476 268.231L612.892 272.138L617.737 274.952L618.382 279.175H620.804L622.259 281.364L619.998 284.178L623.714 286.524L624.52 292.464H633.239L636.793 294.966L628.72 300.909L623.552 309.823L620.482 311.541L622.582 315.919L626.62 317.172L624.681 329.053L627.587 332.651L626.62 342.033H618.221L607.564 347.036L603.367 343.282L601.751 344.535L603.367 349.226L601.751 351.571L598.523 347.349L595.939 346.88L593.355 348.598L592.223 344.222L586.572 348.129V342.814L580.921 338.279L578.983 341.405L575.106 338.591L571.716 342.814V347.661L562.188 341.561L556.214 339.687L559.282 332.651H554.114L551.853 339.219L548.625 334.917L550.241 330.225L549.592 318.421L547.331 316.232L547.736 311.62L549.592 309.823L550.402 300.441L556.859 286.524L559.927 276.673L564.771 269.168H568.81L574.622 260.41L576.722 250.56L571.716 247.433L571.554 244.307L575.267 240.553L574.944 235.081L577.851 231.955H583.021L585.927 225.074H589.64L593.678 211.785L589.801 207.874L585.766 208.968L582.695 206.622L588.833 203.183Z" stroke="#80B357" stroke-width="3" stroke-linecap="round" stroke-linejoin="round"/>
<path d="M633.239 292.464L635.661 278.939L631.303 269.324L635.661 264.633L640.022 247.513L656.251 244.227L661.823 238.599L664.485 232.267L672.236 230.39L676.597 233.908L685.802 231.563L687.738 222.649L682.893 219.134L682.653 211.625L688.709 206.233V198.728L685.559 195.914L687.497 191.223L685.559 186.063L690.647 180.901V177.618L693.553 173.163L700.093 174.336L709.295 163.937L705.744 160.654L698.961 159.246L694.764 160.654L678.453 153.305L676.031 154.399L672.802 151.741L667.635 157.996L666.18 155.335L661.5 156.9L658.752 155.023L659.723 148.77L653.585 138.451L649.872 135.95L643.25 142.202L641.315 136.106L636.309 137.043L629.042 133.604L629.365 141.421L627.588 149.707L624.036 153.149V156.9L619.837 160.967V168.159L613.702 175.04L612.731 181.293L603.367 193.02H599.329L588.833 203.183L593.194 205.997L595.939 204.592H598.845L599.813 207.406L604.819 209.28V214.127L606.757 216.629L607.564 223.822L604.658 236.174L601.106 238.835L601.913 241.181H604.819L606.919 243.211L605.79 245.712L614.024 255.095L617.414 251.968H621.614L623.714 254.314L622.904 259.161L617.414 260.254L615.476 268.231L612.892 272.138L617.737 274.952L618.382 279.175H620.804L622.259 281.364L619.998 284.178L623.714 286.524L624.52 292.464H633.239Z" stroke="#80B357" stroke-width="3" stroke-linecap="round" stroke-linejoin="round"/>
<path d="M636.793 294.966L637.682 292.464L640.385 292.816L641.799 296.178L641.233 300.009L644.664 303.879L650.476 305.833L656.007 300.597L660.125 299.148L664.485 300.986L672.559 290.51V286.132L669.653 281.989L676.436 276.125L679.424 279.175L684.43 278.47L688.225 282.301L693.149 280.739L697.133 277.377L705.314 276.125L707.683 271.149L711.449 270.417L715.756 265.937L721.031 261.246L727.166 256.451L728.351 250.508L725.338 249.258L725.983 246.652L725.123 244.359L728.889 242.898L730.72 232.475L724.908 229.661L722.106 219.238L721.65 204.668L716.161 199.04L718.744 185.359L712.957 171.91L713.817 164.561L709.295 163.937L700.093 174.336L693.553 173.163L690.647 177.618V180.901L685.559 186.063L687.497 191.223L685.559 195.914L688.709 198.728V206.233L682.653 211.625L682.893 219.134L687.738 222.649L685.802 231.563L676.597 233.908L672.236 230.39L664.485 232.267L661.823 238.599L656.251 244.227L640.022 247.513L635.661 264.633L631.303 269.324L635.661 278.939L633.239 292.464L636.793 294.966Z" stroke="#80B357" stroke-width="3" stroke-linecap="round" stroke-linejoin="round"/>
<path d="M728.889 242.898L734.73 244.463L741.997 240.945L749.991 244.463V248.686L753.865 251.733L761.132 247.513L764.038 240.945L759.921 234.885L764.038 225.935L762.583 222.649L766.46 218.662H770.337L774.455 210.22L778.572 199.429L786.484 198.805L785.352 195.054L778.733 193.645L776.956 190.363L773.244 189.266L765.331 178.323L759.193 176.914L749.665 168.94L739.17 162.844L731.258 161.279L722.862 163.312L713.817 164.562L712.957 171.911L718.744 185.359L716.161 199.04L721.65 204.669L722.106 219.238L724.908 229.661L730.72 232.475L728.889 242.898Z" stroke="#80B357" stroke-width="3" stroke-linecap="round" stroke-linejoin="round"/>
<path d="M817.81 227.34H807.637L803.036 222.885L798.918 224.762L800.857 231.327L798.435 236.018H795.285V231.327L790.44 230.858L786.484 233.44L781.722 230.626L783.417 225.23L788.502 220.539L786.484 218.662L778.088 222.18L776.877 225.935L771.549 228.28L764.038 225.935L762.583 222.649L766.46 218.662H770.337L774.455 210.22L778.572 199.429L786.484 198.805L789.229 200.526L793.267 199.589L795.851 201.775L805.053 203.183L808.93 201.306L817.004 203.183L816.842 213.034L817.81 227.34Z" stroke="#80B357" stroke-width="3" stroke-linecap="round" stroke-linejoin="round"/>
<path d="M815.875 247.746L810.059 251.732L803.763 249.154L797.707 251.732V256.892L790.197 259.709L787.534 257.364L788.261 254.546L784.384 253.141L790.197 242.586L786.484 240.945L778.812 247.513L771.549 251.732L767.188 248.918L762.583 250.327L761.132 247.513L764.038 240.945L759.921 234.885L764.038 225.935L771.549 228.28L776.877 225.935L778.088 222.18L786.484 218.662L788.502 220.539L783.417 225.23L781.722 230.626L786.484 233.44L790.44 230.858L795.285 231.327V236.018H798.435L800.857 231.327L798.918 224.762L803.036 222.885L807.637 227.34H817.81L815.875 247.746Z" stroke="#80B357" stroke-width="3" stroke-linecap="round" stroke-linejoin="round"/>
<path d="M816.842 267.759L806.347 270.417L804.569 274.484L797.947 277.61L791.006 278.238L783.094 271.513H778.572V268.387L775.505 269.168L774.534 273.703L768.721 277.298L767.267 272.294L751.926 266.822V263.852L749.02 262.912L742.724 264.945L739.008 268.699V272.138L733.196 273.026L732.064 277.925L727.222 280.112H723.829L725.768 274.484L722.216 269.324L715.756 265.937L721.031 261.246L727.166 256.451L728.351 250.508L725.338 249.258L725.983 246.653L725.123 244.359L728.889 242.898L734.73 244.463L741.997 240.945L749.991 244.463V248.686L753.865 251.732L761.132 247.513L762.583 250.327L767.188 248.918L771.549 251.732L778.812 247.513L786.484 240.945L790.197 242.586L784.384 253.141L788.261 254.547L787.534 257.364L790.197 259.709L797.707 256.892V251.732L803.763 249.154L810.059 251.732L815.875 247.746L816.842 267.759Z" stroke="#80B357" stroke-width="3" stroke-linecap="round" stroke-linejoin="round"/>
<path d="M816.842 267.759L806.347 270.417L804.569 274.484L797.948 277.61L791.006 278.238L783.094 271.513H778.572V268.387L775.505 269.168L774.534 273.703L768.721 277.298L772.839 281.676L780.511 285.274H784.868L791.813 288.401L792.619 292.464L797.948 293.716L801.771 298.043L803.387 293.873L807.798 291.163L813.073 283.449L816.842 267.759Z" stroke="#80B357" stroke-width="3" stroke-linecap="round" stroke-linejoin="round"/>
<path d="M772.093 279.98L770.721 283.735L772.093 287.486H775.888L777.504 293.429L774.111 294.366L775.565 299.526L772.982 300.778L770.721 298.901L767.169 299.369L766.037 302.808L772.093 308.595V312.659L777.504 315.161L782.94 314.38L787.136 308.752L789.505 303.644L796.073 298.013L801.025 296.347L797.202 292.02L791.873 290.768L791.067 286.705L784.123 283.578H779.765L772.093 279.98Z" stroke="#80B357" stroke-width="3" stroke-linecap="round" stroke-linejoin="round"/>
<path d="M636.793 294.966L628.72 300.909L623.552 309.823L620.482 311.541L622.582 315.92L626.62 317.172L624.681 329.053L627.588 332.651L626.62 342.033V348.598L628.233 352.352L626.781 361.422L633.239 366.113L631.357 375.18L632.002 377.994L628.666 380.704L630.601 382.06L636.202 379.871L645.135 372.99L648.149 372.886L654.287 367.362L663.005 364L670.434 365.902L668.818 371.533L675.816 374.347L680.553 371.533H684.645L697.026 380.079L699.394 378.621L701.978 380.915L706.712 379.454L714.681 386.335L714.14 390.818L717.694 391.13L720.816 389.253L731.473 391.859L739.872 396.238L739.331 400.512L733.304 405.412L732.336 408.33L734.271 409.787L732.981 411.248H728.459L727.706 419.794L734.812 427.091L732.994 429.712L742.964 435.848L747.404 429.048L750.554 428.264L753.138 424.745L751.364 423.028L751.604 416.303L753.381 412.316L752.736 409.891L754.27 401.526L758.387 394.648L758.305 391.675L756.126 388.472L756.233 384.041L754.08 373.826L753.972 370.489L756.556 365.485L757.094 358.501L755.266 357.043L755.051 355.374L757.416 353.81L757.742 350.371L755.803 347.973L756.126 345.784L765.923 341.616L773.028 335.256L778.088 328.272L783.685 316.076L778.249 316.857L772.839 314.355V310.291L766.783 304.504L767.915 301.065L771.466 300.597L773.727 302.474L776.311 301.222L774.856 296.062L778.249 295.125L776.634 289.182H772.839L771.466 285.431L772.839 281.676L768.721 277.298L767.267 272.294L751.926 266.822V263.852L749.02 262.912L742.724 264.945L739.008 268.699V272.138L733.196 273.026L732.064 277.925L727.222 280.112H723.829L725.768 274.484L722.216 269.324L715.756 265.937L711.449 270.417L707.683 271.149L705.314 276.125L697.133 277.377L693.149 280.739L688.225 282.301L684.43 278.47L679.424 279.175L676.436 276.125L669.653 281.989L672.559 286.132V290.511L664.485 300.986L660.125 299.149L656.007 300.597L650.476 305.833L644.664 303.879L641.233 300.009L641.707 295.961L640.385 292.816L637.682 292.464L636.793 294.966Z" stroke="#80B357" stroke-width="3" stroke-linecap="round" stroke-linejoin="round"/>
</g>
<defs>
<clipPath id="clip0_476_2">
<rect width="682.284" height="690" fill="white" transform="translate(136 19)"/>
</clipPath>
</defs>
</svg>
