
<svg xmlns="http://www.w3.org/2000/svg" version="1.1" xmlns:xlink="http://www.w3.org/1999/xlink" preserveAspectRatio="none" x="0px" y="0px" width="1300px" height="1080px" viewBox="0 0 1300 1080">
<defs>
<filter id="Filter_1" x="-20%" y="-20%" width="140%" height="140%" color-interpolation-filters="sRGB">
<feColorMatrix in="SourceGraphic" type="matrix" values="1 0 0 0 0 0 1 0 0 0 0 0 1 0 0 0 0 0 0.71 0" result="result1"/>
</filter>

<g id="Layer0_0_MEMBER_0_FILL">
<path fill="#F2EAD5" stroke="none" d="
M 341.05 127.7
Q 341.15 127.7 341.3 127.9
L 341.9 128.05 342 128.05
Q 342.05 128.15 342.2 128.25 342.3 128.25 342.3 128.1 342.25 127.95 342.4 127.85 342.55 127.7 342.7 127.75 342.8 128.1 343.15 128 343.55 127.85 343.55 128.3 343.7 128.15 343.65 127.9 344.05 128.1 344.6 128.1 344.7 128.05 344.85 128.15 344.95 128.25 345.05 128.15 345.05 128.1 345.1 128 345.55 127.65 345.75 127.7 345.85 127.8 345.85 127.65 345.85 127.45 346.35 127.05 346.5 126.95 346.75 127.05
L 346.75 127 347.1 127 347.2 127.05
Q 347.3 127.15 347.4 127.1 347.5 127.05 347.5 126.95
L 347.55 126.85 347.7 126.75 347.75 126.7
Q 348 126.55 348.1 126.8 348.25 126.8 348.4 126.65 348.6 126.5 348.7 126.5 348.85 126.75 349.15 126.55 349.7 126.65 349.85 126.55
L 349.9 126.6
Q 349.9 126.8 350.1 126.8 350.25 126.75 350.7 126.85 350.75 126.8 350.65 126.65 350.75 126.65 350.9 126.6
L 351.05 126.75 351.05 127.25
Q 351.05 127.5 351.2 127.55 351.3 127.5 351.5 127.6 351.65 127.6 351.65 127.45 351.65 126.9 351.9 126.85
L 351.9 126.7
Q 352 126.55 352.2 126.6
L 352.45 126.7 352.45 126.75
Q 352.85 126.75 352.8 127.15 352.8 127.2 352.85 127.35 352.85 127.45 352.75 127.5 352.8 127.6 352.85 127.6 353.25 127.6 353.3 127.45 353.4 127.3 353.6 127.4 354 127.5 354.1 127.45 354.35 127.4 354.4 127.6 354.45 127.8 354.85 127.8 354.8 127.65 354.9 127.65
L 355.1 127.65
Q 354.95 127.55 355 127.45 355.05 127.4 355.2 127.45
L 355.4 127.4 355.5 127.45 355.7 127.45 356.2 127.3 356.4 127.3 356.5 127.4
Q 356.65 127.4 356.65 127.25
L 356.7 127.35
Q 356.7 127.55 356.8 127.55
L 356.8 127.3
Q 356.85 127.35 357.05 127.35
L 357.15 127.35
Q 357.45 127.25 357.4 127.1
L 357.4 127.05
Q 357.6 126.9 357.7 127 357.9 127 358.3 127.05 358.6 127.1 358.8 126.9 359.05 126.75 359.55 126.95
L 359.65 126.95 359.65 127 359.7 127.1
Q 359.8 127.25 360.1 127.2
L 360.15 127.25 360.15 45 273.75 45 273.75 131.75
Q 273.95 131.65 274.3 131.8
L 274.25 131.85 274.25 131.95 274.4 132.1
Q 274.6 132.2 274.7 131.9
L 274.75 131.9
Q 274.75 132.1 274.9 132
L 274.95 132.05 275.1 132.15 275.15 132.2 275.4 132.3 275.5 132.2 275.6 132.2 275.7 132.25
Q 275.9 132.3 276.05 132.25
L 276.1 132.2 276.15 132.25
Q 276.3 132.4 276.65 132.5 276.75 132.6 277 132.6 277.2 132.8 277.45 132.6 278 132.4 278.2 132.5 278.35 132.65 278.35 132.5 278.4 132.6 278.55 132.6 278.75 132.55 278.8 132.6 278.5 132.6 278.5 132.75 278.55 133.05 278.85 133.25 279.15 133.45 279.4 133.35
L 280.25 133.1
Q 280.6 133.1 280.65 132.8 280.75 132.85 280.85 132.95 281 133 281.1 132.9 281.1 132.75 281.2 132.75 281.4 132.75 281.5 132.65
L 281.6 132.65
Q 281.7 132.7 281.85 132.6 282.05 132.6 282.5 132.7 282.7 132.6 283.15 132.8 283.25 132.9 283.55 132.8 283.9 132.7 283.9 133.1
L 283.9 133.3 283.95 133.35 284.2 133.4 284.3 133.35 284.4 133.1 285.3 133.1 285.5 132.9
Q 285.55 132.95 286.15 133.2
L 286.35 133
Q 286.45 133.05 286.7 132.8 287 132.9 287.2 132.75
L 287.2 132.7 287.25 132.7 287.3 132.65
Q 287.35 132.45 287.2 132.35 287.65 132.25 287.75 132 287.8 131.8 287.95 131.95 288.1 132.2 288.25 132
L 288.3 131.9
Q 288.3 131.45 288.7 131.25
L 288.8 131.05 289.05 130.95
Q 289.15 130.9 289.3 131.05 289.5 131.05 289.55 131.2 289.8 131.3 290 131.15
L 290.05 131.1 290.1 131.1
Q 290.3482421875 130.951171875 290.3 130.9
L 290.45 131.05
Q 290.6 131.2 290.65 131.2
L 290.75 131.2
Q 291.05 131.1 290.85 130.85 290.7 130.7 290.75 130.65
L 290.9 130.7
Q 291.15 131 291.6 131 291.75 130.95 291.85 131 292.5 131.1 292.95 130.9 293.25 130.85 293.5 130.9 293.6 130.9 293.7 130.65 293.75 130.55 293.85 130.5 294 130.45 294.05 130.55 294.1 130.6 294.45 130.85
L 295.05 130.7
Q 295.3 130.7 295.15 130.55 295 130.2 295.2 130 295.35 130.2 295.45 130.65
L 295.6 130.35
Q 295.65 130.35 295.6 130.3 295.45 130.25 295.45 129.85
L 295.95 129.85
Q 296.3 129.8 296.9 129.5 297.4 129.35 297.7 129.7 297.95 129.95 298.05 129.95 298.15 129.95 298.45 129.8 298.6 129.7 298.85 129.75 299.1 129.8 299.2 129.95
L 299.3 130.05 299.5 130.1
Q 299.65 129.95 299.55 129.8 299.45 129.7 299.55 129.6
L 299.65 129.55
Q 299.8 129.25 300.15 129.5 300.35 129.7 300.5 129.5 300.5 129.7 300.65 129.7
L 300.7 129.7 300.8 129.85
Q 300.85 129.85 300.9 130 300.95 130.05 301 130 301.3 130 301.2 129.75 301.15 129.7 301.2 129.7
L 301.3 129.7 301.4 129.65
Q 301.4 129.85 301.75 129.95 301.7 130.1 301.85 130.45
L 302 130.75
Q 302.1 130.8 302.2 130.7 302.25 130.65 302.3 130.5
L 302.35 130.75
Q 302.4 130.85 302.25 130.95 302.25 131.15 302.3 131.1 302.5 130.95 302.75 131.1
L 303.05 131.25
Q 303.15 131.35 303.15 131.25
L 303.2 131.2 303.2 131.05
Q 303.35 131.1 303.4 131.35
L 303.6 131.45
Q 303.7 131.4 303.7 131.2
L 303.65 131.15 303.7 131.15 303.8 131.4
Q 303.85 131.55 304 131.6 304.05 131.55 304.2 131.6
L 304.15 131.5
Q 304 131.4 304.1 131.3 304.2 131.15 304.3 131.35 304.4 131.25 304.25 131.05 304.3 131 304.4 131 304.55 131 304.55 130.9
L 304.2 130.85
Q 304.3 130.8 304.3 130.3 304.75 130.65 304.75 130.7 304.8 130.75 304.8 130.9 304.85 131.05 304.95 131.1 305.1 131.3 305.4 131.3 305.8 131.25 305.9 131.3 306 131.35 306.1 131.7 306.2 132 306.4 131.9 306.6 131.65 306.4 131.15
L 306.5 131.15
Q 306.7 131.45 306.85 131.5 306.95 131.5 307.35 131.4
L 307.5 131.35
Q 307.7 131.55 308 131.25
L 308 131.3
Q 308.1 131.4 308.1 131.35 308.2 131.25 308.05 131.25
L 308.05 131.2
Q 308.3 130.4 308.45 130.3
L 308.55 130.15
Q 308.65 129.9 308.5 129.75 308.35 129.6 308.2 129.7 307.9 129.75 308.1 130.05 307.9 130 307.95 129.85 308 129.7 308 129.65
L 308.3 129.65 308.55 129.55 308.65 129.6 308.7 129.55 308.8 129.6 309 129.55 309.05 129.55
Q 308.95 129.9 309.25 130.1 309.4 130.25 309.55 130.15 309.7 130.1 309.55 129.95 309.5 129.8 309.7 129.8 309.8 129.9 310 130.15
L 310 130.2
Q 310.15 130.3 310.3 130.15
L 310.35 130.25
Q 310.45 130.15 310.45 129.95
L 310.6 129.95
Q 310.65 130.05 310.85 130.05 311.05 130.45 311.3 130.3
L 311.35 130.3
Q 311.6 130.4 311.6 130.05 311.65 130.15 311.75 130.15 311.9 130.15 311.9 130
L 312.15 129.55 312.35 129.65
Q 312.45 129.7 312.45 129.8 312.65 129.65 313.05 129.75 313.1 129.8 313.1 129.9 313 130.15 313 130.65 313 130.85 313.15 130.7
L 313.3 130.65
Q 313.6 130.75 313.6 130.55 313.75 130.2 313.6 130.05
L 313.25 129.75
Q 313.3 129.7 313.6 129.7 313.6 130.1 314 130.7 314.1 130.9 314.35 130.8
L 314.75 130.8 314.75 130.85 314.85 130.95 315.05 131 314.85 130.85
Q 314.9 130.8669921875 314.9 130.8 315.3 130.7 315.3 130.45 315.45 130.35 315.55 130.4 315.6 130.4 315.7 130.5
L 315.75 130.7
Q 315.85 130.6 316 130.4 316.15 130.25 316.35 130.3 316.45 130.35 316.35 130.15 316.55 130.3 317.05 130.35
L 317.2 130.4
Q 317.25 130.55 317.5 130.6 317.65 130.75 317.7 130.7 317.85 130.7 317.8 130.45 318.15 130.45 318.3 130.6
L 318.3 130.3 318.55 130.45 318.85 130.4
Q 319.4 130.15 319.7 129.7
L 319.7 129.65
Q 319.9 129.55 319.95 129.6 320.3 129.85 320.35 129.45 320.7 130 321.35 129.75
L 321.55 129.8 321.8 129.8
Q 321.75 129.65 321.6 129.55
L 321.35 129.35
Q 321.05 129.15 321.4 129.15 321.6 129.45 322.3 129.5 322.55 129.65 323.1 129.35 323.15 129.5 323.45 129.5 323.55 129.4 323.65 129.65
L 323.95 129.7
Q 324.75 129.9 325.1 129.65
L 325.15 129.65 325.35 129.7
Q 325.75 129.8 325.95 130
L 326.15 130.05
Q 326.45 129.7 326.4 129.4 326.65 129.6 326.95 129.4 327.15 129.4 327.15 129.45
L 327.2 129.45 327.45 129.5
Q 327.55 129.55 327.65 129.5 327.85 129.75 328.05 129.65 328.15 129.6 328.35 129.45 328.4 129.05 328.75 129.25
L 328.9 129.3
Q 329.1 129.2 329.2 129.35 329.3 129.45 329.5 129.5 329.7 129.5 329.8 129.4 329.95 129.25 330.15 129.3 330.25 129.4 330.3 129.25
L 330 129.05 330.15 128.9 330.3 128.85 330.35 128.7
Q 330.45 128.65 330.55 128.7 330.7 128.85 330.75 128.75 330.8 128.6 331.1 128.6
L 331.1 128.65
Q 331.1 128.8 331.2 128.75
L 331.6 129
Q 331.8 129.2 331.8 129 331.85 128.75 332.25 128.9 332.75 129 333 128.9
L 333.1 128.45
Q 333.15 128.6 333.35 128.75 333.5 128.9 333.55 129.1
L 333.55 128.4
Q 333.55 128.15 333.75 128.15 333.85 128.05 333.85 128.25 333.95 128.35 334 128.3 334.2 128.3 334.05 128.15 334 128.05 334.05 128
L 334.2 127.9 334.45 127.55 334.55 127.55 334.65 127.6
Q 334.8 127.7 334.9 127.6 335.1 127.5 335.5 127.5
L 335.8 127.45
Q 336.15 127.35 336.35 127.45 336.5 127.5 336.6 127.4
L 336.65 127.3 337.1 127.85 337.4 128 337.5 127.95
Q 337.4 127.7 337.7 127.75 337.8 127.7 337.75 127.65 337.65 127.35 337.5 127.25 337.4 127.15 337.4 127.1
L 337.6 127
Q 337.7 126.9 337.7 127.1 337.75 127.3 338 127.45 338.1 127.55 338.15 127.45
L 338.2 127.35
Q 337.95 127.25 338.05 127.1 338.1 127.05 338.2 126.95
L 338.2 126.9
Q 338.35 126.9 338.45 127.1 338.65 127.3 338.8 127.25
L 338.85 127.3 338.9 127.3 339.05 127.45
Q 339.05 127.6 338.9 127.85 338.9 128.05 339 127.95 339.1 127.9 339.35 128 339.5 128.2 339.5 128 339.55 127.85 339.75 127.9
L 340.05 128.15
Q 340.2 128.3 340.4 128.2 340.5 128.1 340.45 127.95
L 340.15 127.65
Q 339.7 127.65 339.6 127.1 339.6 126.95 339.65 126.95 339.7 127.05 339.95 127.15
L 340.05 127.2 340.05 127.25
Q 340.25 127.4 340.6 127.8
L 340.6 127.55
Q 340.9 127.75 341.05 127.7 Z"/>
</g>

<g id="flash0_ai_Layer_2__Path__0_Layer0_0_FILL">
<path fill="#EE9A5A" stroke="none" d="
M 34.95 5.3
Q 34.65 4.85 35 4.25 35.35 3.65 35.95 3.7
L 33.7 2.3 35.35 0 19.4 5.75
Q 6.5 10.35 0 13.7
L 3.15 13.3 1.05 15.6 4.45 15.75 2.3 18.05 5.75 18.2
Q 4.65 19.5 3.05 20.5 6.5 19.95 7.35 21.4 5.55 22.1 4.45 23.35 5.85 23.95 7.4 23.5
L 5.95 26.45 25.65 18.55
Q 35.1 14.75 39.65 13.55 38.5 13.65 37.5 13.1
L 38.9 11.05 36.3 10.5 37.8 9.2
Q 36.8 8.5 35.65 8.3 35.95 7.15 37.05 6.35 35.35 5.9 34.95 5.3 Z"/>
</g>

<g id="Layer0_0_MEMBER_2_FILL">
<path fill="#2F431E" stroke="none" d="
M 603.3 759.65
L 603.3 758.2
Q 603.3 749.7 598.7 744.95 594.1 740.25 585.85 740.25 577.95 740.25 572.95 745.45 567.9 750.6 567.9 758.65 567.9 767 572.75 772 577.6 777 585.85 777 591.55 777 595.8 774.5 600.05 771.95 602.95 766.8
L 596.35 763.15
Q 594.5 766.65 591.95 768.25 589.45 769.85 585.65 769.85 581.4 769.85 578.85 767.15 576.3 764.45 576 759.65
L 603.3 759.65
M 592.4 748.8
Q 594.75 750.75 595.2 754.4
L 576.5 754.4
Q 577.45 750.6 579.8 748.75 582.1 746.9 585.95 746.9 590.05 746.9 592.4 748.8
M 509.2 742
Q 506.2 740.25 502.05 740.25 495.2 740.25 490.95 745.3 486.7 750.3 486.7 758.5 486.7 767.1 490.85 772.05 495 777 502.25 777 505.85 777 508.65 775.55 511.45 774.1 513.55 771.15
L 513.55 775.6 521.35 775.6 521.35 741.45 513.55 741.45 513.55 747
Q 512.15 743.75 509.2 742
M 513.75 758.4
Q 513.75 763.65 511.1 766.85 508.45 770.05 504.25 770.05 499.75 770.05 497.3 767.1 494.85 764.15 494.85 758.7 494.85 753.3 497.4 750.25 499.95 747.2 504.4 747.2 508.8 747.2 511.3 750.15 513.75 753.1 513.75 758.4
M 549.8 742
Q 546.8 740.25 542.65 740.25 535.8 740.25 531.55 745.3 527.3 750.3 527.3 758.5 527.3 767.1 531.45 772.05 535.6 777 542.85 777 546.45 777 549.25 775.55 552.05 774.1 554.15 771.15
L 554.05 775.7
Q 554 780.85 551.85 783.05 549.65 785.25 544.6 785.25 541.25 785.25 539.35 784.1 537.5 782.95 537.3 780.75
L 528.9 780.8
Q 529 785.75 533.2 788.7 537.4 791.65 544.45 791.65 553.95 791.65 557.95 787.6 561.95 783.5 561.95 773.45
L 561.95 741.45 554.15 741.45 554.15 747
Q 552.75 743.75 549.8 742
M 551.9 750.15
Q 554.35 753.1 554.35 758.4 554.35 763.65 551.7 766.85 549.05 770.05 544.85 770.05 540.35 770.05 537.9 767.1 535.45 764.15 535.45 758.7 535.45 753.3 538 750.25 540.55 747.2 545 747.2 549.4 747.2 551.9 750.15
M 456.45 741.45
L 448.6 741.45 448.6 791.65 456.45 791.65 456.45 771.15
Q 458.5 774.1 461.35 775.55 464.1 777 467.7 777 474.95 777 479.15 772.05 483.3 767.1 483.3 758.5 483.3 750.3 479.05 745.3 474.8 740.25 468 740.25 463.8 740.25 460.8 742 457.8 743.8 456.45 747
L 456.45 741.45
M 475.1 758.7
Q 475.1 764.15 472.7 767.1 470.25 770.05 465.8 770.05 461.45 770.05 458.85 766.9 456.15 763.7 456.15 758.4 456.15 753.1 458.65 750.15 461.15 747.2 465.6 747.2 470 747.2 472.55 750.25 475.1 753.3 475.1 758.7
M 404.05 741.35
L 404.05 775.6 411.9 775.6 411.9 760.6
Q 411.9 753.25 413.55 750.15 415.25 747 419.15 747 420.6 747 421.8 747.4 422.95 747.7 423.95 748.45
L 426.75 741.8
Q 425.2 741.05 423.65 740.65 422 740.25 420.35 740.25 417.3 740.25 415.25 741.85 413.15 743.5 411.9 746.9
L 411.9 741.35 404.05 741.35
M 398.35 759.65
L 398.35 758.2
Q 398.35 749.7 393.75 744.95 389.15 740.25 380.9 740.25 373 740.25 368 745.45 362.95 750.6 362.95 758.65 362.95 767 367.8 772 372.65 777 380.9 777 386.6 777 390.85 774.5 395.1 771.95 398 766.8
L 391.4 763.15
Q 389.55 766.65 387 768.25 384.5 769.85 380.7 769.85 376.45 769.85 373.9 767.15 371.35 764.45 371.05 759.65
L 398.35 759.65
M 387.45 748.8
Q 389.8 750.75 390.25 754.4
L 371.55 754.4
Q 372.5 750.6 374.85 748.75 377.15 746.9 381 746.9 385.1 746.9 387.45 748.8
M 331.95 719.75
L 324.6 719.75 324.6 775.6 332.45 775.6 332.45 760.05
Q 332.45 755.8 332.8 753.9 333.1 751.95 334 750.75 335.2 748.9 337.35 747.9 339.5 746.9 342.25 746.9 346.4 746.9 348.05 749.1 349.7 751.3 349.7 758.05
L 349.7 775.6 357.6 775.6 357.6 754.9
Q 357.6 750.2 357.2 748.3 356.8 746.45 355.9 745.05 354.35 742.65 351.7 741.45 349 740.25 345.2 740.25 340.65 740.25 337.45 741.85 334.3 743.5 331.95 747
L 331.95 719.75
M 280.05 740.25
Q 276.35 740.25 272.9 741.6 269.5 743 266.85 745.55 264.2 748.15 262.75 751.5 261.35 754.8 261.35 758.55 261.35 762.3 262.75 765.6 264.15 768.95 266.85 771.6 269.5 774.25 272.95 775.65 276.35 777 280.05 777 283.85 777 287.3 775.65 290.7 774.25 293.5 771.55 296.2 768.95 297.6 765.65 298.95 762.35 298.95 758.55 298.95 754.9 297.55 751.6 296.15 748.3 293.45 745.65 290.75 743 287.35 741.6 283.95 740.25 280.05 740.25
M 272.7 750.6
Q 275.75 747.25 280.15 747.25 284.6 747.25 287.65 750.6 290.7 753.85 290.7 758.65 290.7 763.4 287.65 766.7 284.55 770 280.15 770 275.75 770 272.7 766.7 269.6 763.4 269.6 758.65 269.6 753.85 272.7 750.6
M 239.75 741.45
L 239.75 748.3 245.75 748.3 245.75 775.6 253.55 775.6 253.55 748.3 259.55 748.3 259.55 741.45 253.55 741.45 253.55 728.5 245.75 728.5 245.75 741.45 239.75 741.45
M 994.95 642.4
Q 992.7 641.85 990.05 641.85 981.55 641.85 976.35 646.95 971.1 651.95 971.1 660.25 971.1 668.35 976.15 673.5 981.2 678.6 989.25 678.6 992 678.6 994.5 678 996.95 677.4 999.1 676.15
L 999.1 667.15
Q 997.45 669.3 995.2 670.4 992.95 671.45 990.1 671.45 985 671.45 982.1 668.4 979.2 665.35 979.2 660 979.2 654.9 982.1 651.8 984.95 648.7 989.75 648.7 992.55 648.7 994.95 649.75 997.3 650.8 999.1 652.75
L 999.1 643.95
Q 997.2 642.9 994.95 642.4
M 1032.75 621.35
L 1024.9 621.35 1024.9 677.2 1032.75 677.2 1032.75 621.35
M 1014.25 643.05
L 1014.25 630.1 1006.45 630.1 1006.45 643.05 1000.45 643.05 1000.45 649.9 1006.45 649.9 1006.45 677.2 1014.25 677.2 1014.25 649.9 1020.25 649.9 1020.25 643.05 1014.25 643.05
M 1072.1 643.05
L 1063.6 643.05 1055 661.7
Q 1053.25 665.65 1052.75 667.45 1052.5 665.7 1052.1 664.05 1051.7 662.35 1051.15 660.75
L 1044.85 643.05 1036.2 643.05 1048.75 674.25 1039.4 693.25 1047.45 693.25 1072.1 643.05
M 967.9 661.25
L 967.9 659.8
Q 967.9 651.3 963.3 646.55 958.7 641.85 950.45 641.85 942.55 641.85 937.55 647.05 932.5 652.2 932.5 660.25 932.5 668.6 937.35 673.6 942.2 678.6 950.45 678.6 956.15 678.6 960.4 676.1 964.65 673.55 967.55 668.4
L 960.95 664.75
Q 959.1 668.25 956.55 669.85 954.05 671.45 950.25 671.45 946 671.45 943.45 668.75 940.9 666.05 940.6 661.25
L 967.9 661.25
M 957 650.4
Q 959.35 652.35 959.8 656
L 941.1 656
Q 942.05 652.2 944.4 650.35 946.7 648.5 950.55 648.5 954.65 648.5 957 650.4
M 926.7 641.85
Q 923.65 641.85 921.6 643.45 919.5 645.1 918.25 648.5
L 918.25 642.95 910.4 642.95 910.4 677.2 918.25 677.2 918.25 662.2
Q 918.25 654.85 919.9 651.75 921.6 648.6 925.5 648.6 926.95 648.6 928.15 649 929.3 649.3 930.3 650.05
L 933.1 643.4
Q 931.55 642.65 930 642.25 928.35 641.85 926.7 641.85
M 586.05 631.7
L 586.05 624.45 549.5 624.45 549.5 631.7 563.5 631.7 563.5 677.2 572.1 677.2 572.1 631.7 586.05 631.7
M 641.65 643.05
L 633.85 643.05 633.85 648.6
Q 632.45 645.35 629.5 643.6 626.5 641.85 622.35 641.85 615.5 641.85 611.25 646.9 607 651.9 607 660.1 607 668.7 611.15 673.65 615.3 678.6 622.55 678.6 626.15 678.6 628.95 677.15 631.75 675.7 633.85 672.75
L 633.85 677.2 641.65 677.2 641.65 643.05
M 631.6 651.75
Q 634.05 654.7 634.05 660 634.05 665.25 631.4 668.45 628.75 671.65 624.55 671.65 620.05 671.65 617.6 668.7 615.15 665.75 615.15 660.3 615.15 654.9 617.7 651.85 620.25 648.8 624.7 648.8 629.1 648.8 631.6 651.75
M 884.95 621.35
L 877.15 621.35 877.15 648.6
Q 875.75 645.35 872.8 643.6 869.8 641.85 865.65 641.85 858.8 641.85 854.55 646.9 850.3 651.9 850.3 660.1 850.3 668.7 854.45 673.65 858.6 678.6 865.85 678.6 869.45 678.6 872.25 677.15 875.05 675.7 877.15 672.75
L 877.15 677.2 884.95 677.2 884.95 621.35
M 874.9 651.75
Q 877.35 654.7 877.35 660 877.35 665.25 874.7 668.5 872.1 671.65 867.85 671.65 863.35 671.65 860.9 668.7 858.45 665.75 858.45 660.3 858.45 654.9 861 651.85 863.55 648.8 868 648.8 872.4 648.8 874.9 651.75
M 901.6 643.05
L 893.75 643.05 893.75 677.2 901.6 677.2 901.6 643.05
M 902.5 628.25
Q 902.5 626.15 901.15 624.8 899.75 623.4 897.65 623.4 895.65 623.4 894.2 624.85 892.7 626.3 892.7 628.25 892.7 630.3 894.2 631.75 895.65 633.2 897.65 633.2 899.7 633.2 901.1 631.8 902.5 630.35 902.5 628.25
M 657.45 643.05
L 650.1 643.05 650.1 677.2 657.95 677.2 657.95 661.65
Q 657.95 657.4 658.3 655.5 658.6 653.55 659.5 652.35 660.7 650.5 662.85 649.5 665 648.5 667.75 648.5 671.9 648.5 673.55 650.7 675.2 652.9 675.2 659.65
L 675.2 677.2 683.1 677.2 683.1 656.5
Q 683.1 651.8 682.7 649.9 682.3 648.05 681.4 646.65 679.85 644.25 677.2 643.05 674.5 641.85 670.7 641.85 666.15 641.85 662.95 643.45 659.8 645.1 657.45 648.6
L 657.45 643.05
M 723.1 621.35
L 715.3 621.35 715.3 648.6
Q 713.9 645.35 710.95 643.6 707.95 641.85 703.8 641.85 696.95 641.85 692.7 646.9 688.45 651.9 688.45 660.1 688.45 668.7 692.6 673.65 696.75 678.6 704 678.6 707.6 678.6 710.4 677.15 713.2 675.7 715.3 672.75
L 715.3 677.2 723.1 677.2 723.1 621.35
M 713.05 651.75
Q 715.5 654.7 715.5 660 715.5 665.25 712.85 668.5 710.25 671.65 706 671.65 701.5 671.65 699.05 668.7 696.6 665.75 696.6 660.3 696.6 654.9 699.15 651.85 701.7 648.8 706.15 648.8 710.55 648.8 713.05 651.75
M 808.25 641.85
Q 804.55 641.85 801.1 643.2 797.7 644.6 795.05 647.15 792.4 649.75 790.95 653.1 789.55 656.4 789.55 660.15 789.55 663.9 790.95 667.2 792.35 670.55 795.05 673.2 797.7 675.85 801.15 677.25 804.55 678.6 808.25 678.6 812.05 678.6 815.5 677.25 818.9 675.85 821.7 673.15 824.4 670.55 825.8 667.25 827.15 663.95 827.15 660.15 827.15 656.5 825.75 653.2 824.35 649.9 821.65 647.25 818.95 644.6 815.55 643.2 812.15 641.85 808.25 641.85
M 800.9 652.2
Q 803.95 648.85 808.35 648.85 812.8 648.85 815.85 652.2 818.9 655.45 818.9 660.25 818.9 665 815.85 668.3 812.75 671.6 808.35 671.6 803.95 671.6 800.9 668.3 797.8 665 797.8 660.25 797.8 655.45 800.9 652.2
M 783.6 643.05
L 775.8 643.05 775.8 648.6
Q 774.4 645.35 771.45 643.6 768.45 641.85 764.3 641.85 757.45 641.85 753.2 646.9 748.95 651.9 748.95 660.1 748.95 668.7 753.1 673.65 757.25 678.6 764.5 678.6 768.1 678.6 770.9 677.15 773.7 675.7 775.8 672.75
L 775.7 677.3
Q 775.65 682.45 773.5 684.65 771.3 686.85 766.25 686.85 762.9 686.85 761 685.7 759.15 684.55 758.95 682.35
L 750.55 682.4
Q 750.65 687.35 754.85 690.3 759.05 693.25 766.1 693.25 775.6 693.25 779.6 689.2 783.6 685.1 783.6 675.05
L 783.6 643.05
M 759.65 651.85
Q 762.2 648.8 766.65 648.8 771.05 648.8 773.55 651.75 776 654.7 776 660 776 665.25 773.35 668.45 770.7 671.65 766.5 671.65 762 671.65 759.55 668.7 757.1 665.75 757.1 660.3 757.1 654.9 759.65 651.85
M 531.9 630.65
Q 534.35 630.65 536.25 631.8 538.15 632.95 539.7 635.45
L 546.4 631.95
Q 544.9 627.75 541 625.5 537.05 623.25 531.2 623.25 524.1 623.25 519.75 627.25 515.35 631.25 515.35 637.7 515.35 642.65 518.25 646.15 521.15 649.55 529.9 653.8 530.45 654.05 531.55 654.6 539.25 658.25 539.25 662.9 539.25 666.45 537 668.6 534.75 670.7 530.9 670.7 526.9 670.7 524.3 668.85 521.7 667 520.7 663.45
L 513.9 666.65
Q 515.2 672.4 519.55 675.5 523.8 678.6 530.55 678.6 538.6 678.6 543.3 674.2 548.05 669.8 548.05 662.3 548.05 657.15 545.1 653.7 542.2 650.25 534.4 646.65 534 646.45 533.3 646.15 524.35 642.05 524.35 637.25 524.35 634.25 526.4 632.45 528.45 630.65 531.9 630.65
M 349.4 642.4
Q 347.15 641.85 344.5 641.85 336 641.85 330.8 646.95 325.55 651.95 325.55 660.25 325.55 668.35 330.6 673.5 335.65 678.6 343.7 678.6 346.45 678.6 348.95 678 351.4 677.4 353.55 676.15
L 353.55 667.15
Q 351.9 669.3 349.65 670.4 347.4 671.45 344.55 671.45 339.45 671.45 336.55 668.4 333.65 665.35 333.65 660 333.65 654.9 336.55 651.8 339.4 648.7 344.2 648.7 347 648.7 349.4 649.75 351.75 650.8 353.55 652.75
L 353.55 643.95
Q 351.65 642.9 349.4 642.4
M 390.85 643.05
L 381.2 643.05 366.9 657.2 366.9 621.35 359.05 621.35 359.05 677.2 366.9 677.2 366.9 659.6 382.25 677.2 392.3 677.2 375.35 658.1 390.85 643.05
M 430.85 641.85
Q 427.15 641.85 423.7 643.2 420.3 644.6 417.65 647.15 415 649.75 413.55 653.1 412.15 656.4 412.15 660.15 412.15 663.9 413.55 667.2 414.95 670.55 417.65 673.2 420.3 675.85 423.75 677.25 427.15 678.6 430.85 678.6 434.65 678.6 438.1 677.25 441.5 675.85 444.3 673.15 447 670.55 448.4 667.25 449.75 663.95 449.75 660.15 449.75 656.5 448.35 653.2 446.95 649.9 444.25 647.25 441.55 644.6 438.15 643.2 434.75 641.85 430.85 641.85
M 438.45 652.2
Q 441.5 655.45 441.5 660.25 441.5 665 438.45 668.3 435.35 671.6 430.95 671.6 426.55 671.6 423.5 668.3 420.4 665 420.4 660.25 420.4 655.45 423.5 652.2 426.55 648.85 430.95 648.85 435.4 648.85 438.45 652.2
M 462.85 643.05
L 455.5 643.05 455.5 677.2 463.35 677.2 463.35 661.65
Q 463.35 657.4 463.7 655.5 464 653.55 464.9 652.35 466.1 650.5 468.25 649.5 470.4 648.5 473.15 648.5 477.3 648.5 478.95 650.7 480.6 652.9 480.6 659.65
L 480.6 677.2 488.5 677.2 488.5 656.5
Q 488.5 651.8 488.1 649.9 487.7 648.05 486.8 646.65 485.25 644.25 482.6 643.05 479.9 641.85 476.1 641.85 471.55 641.85 468.35 643.45 465.2 645.1 462.85 648.6
L 462.85 643.05
M 319.25 643.05
L 311.4 643.05 311.4 677.2 319.25 677.2 319.25 643.05
M 318.8 624.8
Q 317.4 623.4 315.3 623.4 313.3 623.4 311.85 624.85 310.35 626.3 310.35 628.25 310.35 630.3 311.85 631.75 313.3 633.2 315.3 633.2 317.35 633.2 318.75 631.8 320.15 630.35 320.15 628.25 320.15 626.15 318.8 624.8
M 302.3 621.35
L 294.45 621.35 294.45 677.2 302.3 677.2 302.3 621.35
M 286.9 637.25
L 287.35 628.6
Q 283.4 625.9 279.2 624.55 274.95 623.2 270.3 623.2 264.4 623.2 259.35 625.2 254.25 627.2 250.3 631.05 246.4 634.95 244.35 640.05 242.25 645.15 242.25 650.95 242.25 656.75 244.35 661.9 246.4 667 250.25 670.8 254.15 674.65 259.3 676.6 264.4 678.6 270.45 678.6 275.2 678.6 279.3 677.4 283.35 676.15 286.85 673.65
L 286.85 663.95
Q 282.95 667.35 278.7 669 274.45 670.65 269.8 670.65 261.75 670.65 256.5 665.1 251.2 659.55 251.2 651 251.2 642.15 256.65 636.6 262.05 631.05 270.7 631.05 275.15 631.05 279.2 632.6 283.25 634.15 286.9 637.25
M 997.5 522.9
L 991.95 522.9 991.95 578.75 997.55 578.75 997.55 561.7
Q 997.55 557.6 998 555.95 998.45 554.3 999.5 553 1000.85 551.3 1002.95 550.4 1005 549.45 1007.55 549.45 1011.95 549.45 1014.05 551.9 1016.15 554.3 1016.15 559.3
L 1016.15 578.75 1021.9 578.75 1021.9 556.3
Q 1021.9 550.8 1018.65 547.7 1015.35 544.6 1009.5 544.6 1005.6 544.6 1002.6 546.15 999.6 547.7 997.5 550.85
L 997.5 522.9
M 970.05 545.75
L 970.05 550.4 976.1 550.4 976.1 578.75 981.85 578.75 981.85 550.4 987.9 550.4 987.9 545.75 981.85 545.75 981.85 532.5 976.1 532.5 976.1 545.75 970.05 545.75
M 960 545.75
L 960 578.75 965.7 578.75 965.7 545.75 960 545.75
M 919.95 580.8
L 930.8 555.5 941.65 580.8 956.3 545.75 949.95 545.75 941.1 568.25 931.25 544.6 930.35 544.6 920.3 568.25 911.5 545.75 905.25 545.75 919.95 580.8
M 959.9 527
Q 958.65 528.2 958.65 529.9 958.65 531.65 959.9 532.85 961.1 534.05 962.8 534.05 964.55 534.05 965.75 532.85 966.9 531.65 966.9 529.95 966.9 528.2 965.75 527 964.5 525.75 962.8 525.75 961.1 525.75 959.9 527
M 885.45 551.15
Q 884.1 548 881.05 546.3 878 544.6 873.7 544.6 868.5 544.6 865.3 547.35 862.05 550.15 862.05 554.55 862.05 560.75 874.05 564.9 874.7 565.15 875 565.25 877.85 566.2 879.05 567.35 880.2 568.5 880.2 570.25 880.2 572.5 878.5 573.85 876.75 575.2 874 575.2 871.15 575.2 869.05 573.9 866.95 572.6 865.6 569.95
L 860.75 573.2
Q 862.7 576.7 865.95 578.45 869.15 580.15 873.8 580.15 879.15 580.15 882.5 577.25 885.8 574.35 885.8 569.65 885.8 566.05 883.75 563.85 881.6 561.6 876.25 559.85 875.5 559.65 874.3 559.25 867.75 557.2 867.75 554.15 867.75 552 869.3 550.65 870.85 549.25 873.35 549.25 875.95 549.25 877.95 550.45 879.85 551.7 880.9 553.95
L 885.45 551.15
M 596.35 545.75
L 596.35 578.75 602.05 578.75 602.05 545.75 596.35 545.75
M 596.25 527
Q 595 528.2 595 529.9 595 531.65 596.25 532.85 597.45 534.05 599.15 534.05 600.9 534.05 602.1 532.85 603.25 531.65 603.25 529.95 603.25 528.2 602.1 527 600.85 525.75 599.15 525.75 597.45 525.75 596.25 527
M 618.2 532.5
L 612.45 532.5 612.45 545.75 606.4 545.75 606.4 550.4 612.45 550.4 612.45 578.75 618.2 578.75 618.2 550.4 624.25 550.4 624.25 545.75 618.2 545.75 618.2 532.5
M 807.85 545.75
L 802.25 545.75 802.25 551.95
Q 800.4 548.3 797.35 546.45 794.3 544.6 790.15 544.6 783.1 544.6 778.85 549.4 774.65 554.2 774.65 562.35 774.65 570.4 779 575.3 783.35 580.15 790.45 580.15 794.25 580.15 797.35 578.3 800.4 576.35 802.4 572.75
L 802.4 578.75 807.85 578.75 807.85 545.75
M 791.4 550.15
Q 796.3 550.15 799.35 553.6 802.4 557 802.4 562.55 802.4 568.25 799.55 571.4 796.65 574.55 791.6 574.55 786.35 574.55 783.5 571.3 780.65 568.05 780.65 562.05 780.65 556.45 783.45 553.3 786.3 550.15 791.4 550.15
M 759.45 562.7
Q 759.45 556.2 761.7 553 763.95 549.75 768.4 549.75 769.2 549.75 770.05 549.9 770.95 550.05 771.9 550.4
L 773.8 545.3
Q 772.85 545 771.9 544.85 770.95 544.65 769.95 544.65 766.3 544.65 763.75 546.5 761.15 548.35 758.9 552.6
L 758.9 545.75 753.9 545.75 753.9 578.75 759.45 578.75 759.45 562.7
M 720.1 549.45
Q 715.5 554.4 715.5 562.15 715.5 570.2 720.15 575.2 724.8 580.15 732.3 580.15 737.4 580.15 741.25 577.9 745.1 575.6 747.6 571.15
L 743.3 568.25
Q 741.25 571.85 738.6 573.65 735.9 575.45 732.6 575.45 727.75 575.45 724.7 572.2 721.7 568.9 721.7 563.6
L 721.7 563.1 747.8 563.1 747.8 562
Q 747.8 553.9 743.55 549.2 739.25 544.5 731.95 544.5 724.7 544.5 720.1 549.45
M 721.7 558.55
Q 722.1 554.4 724.85 551.95 727.6 549.45 731.7 549.45 736.25 549.45 738.85 551.85 741.45 554.15 741.75 558.55
L 721.7 558.55
M 653.5 578.75
L 653.5 545.75 647.8 545.75 647.8 578.75 653.5 578.75
M 678.6 549.45
Q 683 549.45 685.1 551.9 687.2 554.3 687.2 559.3
L 687.2 578.75 692.95 578.75 692.95 556.3
Q 692.95 550.8 689.7 547.7 686.4 544.6 680.55 544.6 676.65 544.6 673.65 546.15 670.65 547.7 668.55 550.85
L 668.55 545.75 663 545.75 663 578.75 668.6 578.75 668.6 561.7
Q 668.6 557.6 669.05 555.95 669.5 554.3 670.55 553 671.9 551.3 674 550.4 676.05 549.45 678.6 549.45
M 653.55 527
Q 652.3 525.75 650.6 525.75 648.9 525.75 647.7 527 646.45 528.2 646.45 529.9 646.45 531.65 647.7 532.85 648.9 534.05 650.6 534.05 652.35 534.05 653.55 532.85 654.7 531.65 654.7 529.95 654.7 528.2 653.55 527
M 708.25 532.5
L 702.5 532.5 702.5 545.75 696.45 545.75 696.45 550.4 702.5 550.4 702.5 578.75 708.25 578.75 708.25 550.4 714.3 550.4 714.3 545.75 708.25 545.75 708.25 532.5
M 832.35 550.05
Q 834.7 550.05 837 550.8 839.35 551.5 841.5 552.9
L 841.5 546.85
Q 839.2 545.75 836.6 545.15 833.95 544.6 831.2 544.6 823.7 544.6 818.85 549.65 814.05 554.65 814.05 562.55 814.05 570.45 818.7 575.35 823.35 580.15 831 580.15 834.25 580.15 837.05 579.5 839.85 578.8 842.05 577.5
L 842.05 570.95
Q 839.35 572.9 836.9 573.8 834.45 574.7 831.9 574.7 826.8 574.7 823.45 571.25 820.1 567.85 820.1 562.75 820.1 557 823.45 553.5 826.8 550.05 832.35 550.05
M 848.4 545.75
L 842.35 545.75 842.35 550.4 848.4 550.4 848.4 578.75 854.15 578.75 854.15 550.4 860.2 550.4 860.2 545.75 854.15 545.75 854.15 532.5 848.4 532.5 848.4 545.75
M 434.35 555.5
Q 433 558.7 433 562.35 433 566 434.35 569.15 435.65 572.35 438.25 574.95 440.8 577.45 444.05 578.8 447.3 580.15 450.95 580.15 454.5 580.15 457.75 578.8 461 577.4 463.65 574.8 466.2 572.35 467.5 569.15 468.85 565.95 468.85 562.35 468.85 558.75 467.5 555.55 466.2 552.3 463.65 549.8 461 547.25 457.8 545.9 454.55 544.6 450.95 544.6 447.25 544.6 444.05 545.9 440.8 547.2 438.25 549.75 435.65 552.25 434.35 555.5
M 439 562.35
Q 439 557.15 442.5 553.5 445.95 549.9 450.95 549.9 455.9 549.9 459.35 553.5 462.8 557.15 462.8 562.35 462.8 567.6 459.35 571.2 455.9 574.8 450.95 574.8 445.95 574.8 442.5 571.2 439 567.6 439 562.35
M 337.6 545.75
L 331.9 545.75 331.9 578.75 337.6 578.75 337.6 545.75
M 350.45 562.75
Q 350.45 557 353.8 553.5 357.15 550.05 362.7 550.05 365.05 550.05 367.35 550.8 369.7 551.5 371.85 552.9
L 371.85 546.85
Q 369.55 545.75 366.95 545.15 364.3 544.6 361.55 544.6 354.05 544.6 349.2 549.65 344.4 554.65 344.4 562.55 344.4 570.45 349.05 575.35 353.7 580.15 361.35 580.15 364.6 580.15 367.4 579.5 370.2 578.8 372.4 577.5
L 372.4 570.95
Q 369.7 572.9 367.25 573.8 364.8 574.7 362.25 574.7 357.15 574.7 353.8 571.25 350.45 567.85 350.45 562.75
M 331.8 527
Q 330.55 528.2 330.55 529.9 330.55 531.65 331.8 532.85 333 534.05 334.7 534.05 336.45 534.05 337.65 532.85 338.8 531.65 338.8 529.95 338.8 528.2 337.65 527 336.4 525.75 334.7 525.75 333 525.75 331.8 527
M 383.4 522.9
L 377.85 522.9 377.85 578.75 383.45 578.75 383.45 561.7
Q 383.45 557.6 383.9 555.95 384.35 554.3 385.4 553 386.75 551.3 388.85 550.4 390.9 549.45 393.45 549.45 397.85 549.45 399.95 551.9 402.05 554.3 402.05 559.3
L 402.05 578.75 407.8 578.75 407.8 556.3
Q 407.8 550.8 404.55 547.7 401.25 544.6 395.4 544.6 391.5 544.6 388.5 546.15 385.5 547.7 383.4 550.85
L 383.4 522.9
M 566.15 546.3
Q 563.1 544.6 558.8 544.6 553.6 544.6 550.4 547.35 547.15 550.15 547.15 554.55 547.15 560.75 559.15 564.9 559.8 565.15 560.1 565.25 562.95 566.2 564.15 567.35 565.3 568.5 565.3 570.25 565.3 572.5 563.6 573.85 561.85 575.2 559.1 575.2 556.25 575.2 554.15 573.9 552.05 572.6 550.7 569.95
L 545.85 573.2
Q 547.8 576.7 551.05 578.45 554.25 580.15 558.9 580.15 564.25 580.15 567.6 577.25 570.9 574.35 570.9 569.65 570.9 566.05 568.85 563.85 566.7 561.6 561.35 559.85 560.6 559.65 559.4 559.25 552.85 557.2 552.85 554.15 552.85 552 554.4 550.65 555.95 549.25 558.45 549.25 561.05 549.25 563.05 550.45 564.95 551.7 566 553.95
L 570.55 551.15
Q 569.2 548 566.15 546.3
M 501.95 547.7
Q 498.65 544.6 492.8 544.6 488.9 544.6 485.9 546.15 482.9 547.7 480.8 550.85
L 480.8 545.75 475.25 545.75 475.25 578.75 480.85 578.75 480.85 561.7
Q 480.85 557.6 481.3 555.95 481.75 554.3 482.8 553 484.15 551.3 486.25 550.4 488.3 549.45 490.85 549.45 495.25 549.45 497.35 551.9 499.45 554.3 499.45 559.3
L 499.45 578.75 505.2 578.75 505.2 556.3
Q 505.2 550.8 501.95 547.7
M 515.65 549.45
Q 511.05 554.4 511.05 562.15 511.05 570.2 515.7 575.2 520.35 580.15 527.85 580.15 532.95 580.15 536.8 577.9 540.65 575.6 543.15 571.15
L 538.85 568.25
Q 536.8 571.85 534.15 573.65 531.45 575.45 528.15 575.45 523.3 575.45 520.25 572.2 517.25 568.9 517.25 563.6
L 517.25 563.1 543.35 563.1 543.35 562
Q 543.35 553.9 539.1 549.2 534.8 544.5 527.5 544.5 520.25 544.5 515.65 549.45
M 517.25 558.55
Q 517.65 554.4 520.4 551.95 523.15 549.45 527.25 549.45 531.8 549.45 534.4 551.85 537 554.15 537.3 558.55
L 517.25 558.55
M 274.35 568.25
L 264.5 544.6 263.6 544.6 253.55 568.25 244.75 545.75 238.5 545.75 253.2 580.8 264.05 555.5 274.9 580.8 289.55 545.75 283.2 545.75 274.35 568.25
M 298.5 522.9
L 292.95 522.9 292.95 578.75 298.55 578.75 298.55 561.7
Q 298.55 557.6 299 555.95 299.45 554.3 300.5 553 301.85 551.3 303.95 550.4 306 549.45 308.55 549.45 312.95 549.45 315.05 551.9 317.15 554.3 317.15 559.3
L 317.15 578.75 322.9 578.75 322.9 556.3
Q 322.9 550.8 319.65 547.7 316.35 544.6 310.5 544.6 306.6 544.6 303.6 546.15 300.6 547.7 298.5 550.85
L 298.5 522.9
M 995.05 465.2
L 995.05 464.7 1021.15 464.7 1021.15 463.6
Q 1021.15 455.5 1016.9 450.8 1012.6 446.1 1005.3 446.1 998.05 446.1 993.45 451.05 988.85 456 988.85 463.75 988.85 471.8 993.5 476.8 998.15 481.75 1005.65 481.75 1010.75 481.75 1014.6 479.5 1018.45 477.2 1020.95 472.75
L 1016.65 469.85
Q 1014.6 473.45 1011.95 475.25 1009.25 477.05 1005.95 477.05 1001.1 477.05 998.05 473.8 995.05 470.5 995.05 465.2
M 995.05 460.15
Q 995.45 456 998.2 453.55 1000.95 451.05 1005.05 451.05 1009.6 451.05 1012.2 453.45 1014.8 455.75 1015.1 460.15
L 995.05 460.15
M 969.85 446.1
Q 962.6 446.1 958 451.05 953.4 456 953.4 463.75 953.4 471.8 958.05 476.8 962.7 481.75 970.2 481.75 975.3 481.75 979.15 479.5 983 477.2 985.5 472.75
L 981.2 469.85
Q 979.15 473.45 976.5 475.25 973.8 477.05 970.5 477.05 965.65 477.05 962.6 473.8 959.6 470.5 959.6 465.2
L 959.6 464.7 985.7 464.7 985.7 463.6
Q 985.7 455.5 981.45 450.8 977.15 446.1 969.85 446.1
M 959.6 460.15
Q 960 456 962.75 453.55 965.5 451.05 969.6 451.05 974.15 451.05 976.75 453.45 979.35 455.75 979.65 460.15
L 959.6 460.15
M 614.15 424.5
L 608.6 424.5 608.6 480.35 614.2 480.35 614.2 463.3
Q 614.2 459.2 614.65 457.55 615.1 455.9 616.15 454.6 617.5 452.9 619.6 452 621.65 451.05 624.2 451.05 628.6 451.05 630.7 453.5 632.8 455.9 632.8 460.9
L 632.8 480.35 638.55 480.35 638.55 457.9
Q 638.55 452.4 635.3 449.3 632 446.2 626.15 446.2 622.25 446.2 619.25 447.75 616.25 449.3 614.15 452.45
L 614.15 424.5
M 676.7 464.7
L 676.7 463.6
Q 676.7 455.5 672.45 450.8 668.15 446.1 660.85 446.1 653.6 446.1 649 451.05 644.4 456 644.4 463.75 644.4 471.8 649.05 476.8 653.7 481.75 661.2 481.75 666.3 481.75 670.15 479.5 674 477.2 676.5 472.75
L 672.2 469.85
Q 670.15 473.45 667.5 475.25 664.8 477.05 661.5 477.05 656.65 477.05 653.6 473.8 650.6 470.5 650.6 465.2
L 650.6 464.7 676.7 464.7
M 660.6 451.05
Q 665.15 451.05 667.75 453.45 670.35 455.75 670.65 460.15
L 650.6 460.15
Q 651 456 653.75 453.55 656.5 451.05 660.6 451.05
M 732.05 465.5
Q 732.05 460.55 729.45 456.9 726.8 453.25 721.65 451.05
L 714.1 447.75
Q 710.5 446.15 708.75 444.1 707 442.05 707 439.25 707 435.9 709.3 433.7 711.5 431.55 715.05 431.55 717.85 431.55 720.05 433.05 722.25 434.55 724 437.6
L 729.2 434.3
Q 727.25 430.35 723.8 428.35 720.3 426.35 715.55 426.35 709.05 426.35 704.85 430 700.7 433.7 700.7 439.3 700.7 444.15 703.25 447.6 705.85 451.05 711.1 453.25
L 717.5 456
Q 721.6 457.8 723.65 460.4 725.7 463 725.7 466.55 725.7 470.9 722.75 473.65 719.85 476.35 715.15 476.35 711.15 476.35 708.5 473.9 705.85 471.4 704.7 466.6
L 699 469.45
Q 700.45 475.3 704.7 478.5 708.9 481.7 715.15 481.7 722.75 481.7 727.4 477.25 732.05 472.8 732.05 465.5
M 732.2 433.55
L 747.1 433.55 747.1 480.35 753.45 480.35 753.45 433.55 768.3 433.55 768.3 427.6 732.2 427.6 732.2 433.55
M 822.1 447.35
L 816.5 447.35 816.5 453.55
Q 814.65 449.9 811.6 448.05 808.55 446.2 804.4 446.2 797.35 446.2 793.1 451 788.9 455.8 788.9 463.95 788.9 472 793.25 476.9 797.6 481.75 804.7 481.75 808.5 481.75 811.6 479.9 814.65 477.95 816.65 474.35
L 816.65 480.35 822.1 480.35 822.1 447.35
M 813.6 455.2
Q 816.65 458.6 816.65 464.15 816.65 469.85 813.8 473 810.9 476.15 805.85 476.15 800.6 476.15 797.75 472.9 794.9 469.65 794.9 463.65 794.9 458.05 797.7 454.9 800.55 451.75 805.65 451.75 810.55 451.75 813.6 455.2
M 836.65 463.3
Q 836.65 459.2 837.1 457.55 837.55 455.9 838.6 454.6 839.95 452.9 842.05 452 844.1 451.05 846.65 451.05 851.05 451.05 853.15 453.5 855.25 455.9 855.25 460.9
L 855.25 480.35 861 480.35 861 457.9
Q 861 452.4 857.75 449.3 854.45 446.2 848.6 446.2 844.7 446.2 841.7 447.75 838.7 449.3 836.6 452.45
L 836.6 447.35 831.05 447.35 831.05 480.35 836.65 480.35 836.65 463.3
M 930.05 471.55
L 925.2 474.8
Q 927.15 478.3 930.4 480.05 933.6 481.75 938.25 481.75 943.6 481.75 946.95 478.85 950.25 475.95 950.25 471.25 950.25 467.65 948.2 465.45 946.05 463.2 940.7 461.45 939.95 461.25 938.75 460.85 932.2 458.8 932.2 455.75 932.2 453.6 933.75 452.25 935.3 450.85 937.8 450.85 940.4 450.85 942.4 452.05 944.3 453.3 945.35 455.55
L 949.9 452.75
Q 948.55 449.6 945.5 447.9 942.45 446.2 938.15 446.2 932.95 446.2 929.75 448.95 926.5 451.75 926.5 456.15 926.5 462.35 938.5 466.5 939.15 466.75 939.45 466.85 942.3 467.8 943.5 468.95 944.65 470.1 944.65 471.85 944.65 474.1 942.95 475.45 941.2 476.8 938.45 476.8 935.6 476.8 933.5 475.5 931.4 474.2 930.05 471.55
M 900.35 424.5
L 894.75 424.5 894.75 453.55
Q 892.9 449.9 889.85 448.05 886.8 446.2 882.7 446.2 875.65 446.2 871.4 451 867.15 455.85 867.15 463.95 867.15 472 871.5 476.9 875.85 481.75 882.95 481.75 886.75 481.75 889.85 479.85 892.95 477.95 894.9 474.35
L 894.9 480.35 900.35 480.35 900.35 424.5
M 891.85 455.15
Q 894.9 458.5 894.9 464 894.9 469.8 891.95 473.05 889 476.3 883.85 476.3 878.8 476.3 875.95 472.85 873.15 469.4 873.15 463.3 873.15 457.9 875.95 454.85 878.75 451.75 883.75 451.75 888.75 451.75 891.85 455.15
M 598.55 434.1
L 592.8 434.1 592.8 447.35 586.75 447.35 586.75 452 592.8 452 592.8 480.35 598.55 480.35 598.55 452 604.6 452 604.6 447.35 598.55 447.35 598.55 434.1
M 567.45 452
L 569.35 446.9
Q 568.4 446.6 567.45 446.45 566.5 446.25 565.5 446.25 561.85 446.25 559.3 448.1 556.7 449.95 554.45 454.2
L 554.45 447.35 549.45 447.35 549.45 480.35 555 480.35 555 464.3
Q 555 457.8 557.25 454.6 559.5 451.35 563.95 451.35 564.75 451.35 565.6 451.5 566.5 451.65 567.45 452
M 515.65 451.05
Q 511.05 456 511.05 463.75 511.05 471.8 515.7 476.8 520.35 481.75 527.85 481.75 532.95 481.75 536.8 479.5 540.65 477.2 543.15 472.75
L 538.85 469.85
Q 536.8 473.45 534.15 475.25 531.45 477.05 528.15 477.05 523.3 477.05 520.25 473.8 517.25 470.5 517.25 465.2
L 517.25 464.7 543.35 464.7 543.35 463.6
Q 543.35 455.5 539.1 450.8 534.8 446.1 527.5 446.1 520.25 446.1 515.65 451.05
M 517.25 460.15
Q 517.65 456 520.4 453.55 523.15 451.05 527.25 451.05 531.8 451.05 534.4 453.45 537 455.75 537.3 460.15
L 517.25 460.15
M 494 482.4
L 510.25 447.35 503.9 447.35 493.95 470.4 484.05 447.35 477.7 447.35 494 482.4
M 442.25 457.1
Q 440.9 460.3 440.9 463.95 440.9 467.6 442.25 470.75 443.55 473.95 446.15 476.55 448.7 479.05 451.95 480.4 455.2 481.75 458.85 481.75 462.4 481.75 465.65 480.4 468.9 479 471.55 476.4 474.1 473.95 475.4 470.75 476.75 467.55 476.75 463.95 476.75 460.35 475.4 457.15 474.1 453.9 471.55 451.4 468.9 448.85 465.7 447.5 462.45 446.2 458.85 446.2 455.15 446.2 451.95 447.5 448.7 448.8 446.15 451.35 443.55 453.85 442.25 457.1
M 467.25 455.1
Q 470.7 458.75 470.7 463.95 470.7 469.2 467.25 472.8 463.8 476.4 458.85 476.4 453.85 476.4 450.4 472.8 446.9 469.2 446.9 463.95 446.9 458.75 450.4 455.1 453.85 451.5 458.85 451.5 463.8 451.5 467.25 455.1
M 415.55 451.35
Q 416.35 451.35 417.2 451.5 418.1 451.65 419.05 452
L 420.95 446.9
Q 420 446.6 419.05 446.45 418.1 446.25 417.1 446.25 413.45 446.25 410.9 448.1 408.3 449.95 406.05 454.2
L 406.05 447.35 401.05 447.35 401.05 480.35 406.6 480.35 406.6 464.3
Q 406.6 457.8 408.85 454.6 411.1 451.35 415.55 451.35
M 395 464.7
L 395 463.6
Q 395 455.5 390.75 450.8 386.45 446.1 379.15 446.1 371.9 446.1 367.3 451.05 362.7 456 362.7 463.75 362.7 471.8 367.35 476.8 372 481.75 379.5 481.75 384.6 481.75 388.45 479.5 392.3 477.2 394.8 472.75
L 390.5 469.85
Q 388.45 473.45 385.8 475.25 383.1 477.05 379.8 477.05 374.95 477.05 371.9 473.8 368.9 470.5 368.9 465.2
L 368.9 464.7 395 464.7
M 386.05 453.45
Q 388.65 455.75 388.95 460.15
L 368.9 460.15
Q 369.3 456 372.05 453.55 374.8 451.05 378.9 451.05 383.45 451.05 386.05 453.45
M 345.65 482.4
L 361.9 447.35 355.55 447.35 345.6 470.4 335.7 447.35 329.35 447.35 345.65 482.4
M 323.2 451.4
Q 320.55 448.85 317.35 447.5 314.1 446.2 310.5 446.2 306.8 446.2 303.6 447.5 300.35 448.8 297.8 451.35 295.2 453.85 293.9 457.1 292.55 460.3 292.55 463.95 292.55 467.6 293.9 470.75 295.2 473.95 297.8 476.55 300.35 479.05 303.6 480.4 306.85 481.75 310.5 481.75 314.05 481.75 317.3 480.4 320.55 479 323.2 476.4 325.75 473.95 327.05 470.75 328.4 467.55 328.4 463.95 328.4 460.35 327.05 457.15 325.75 453.9 323.2 451.4
M 318.9 455.1
Q 322.35 458.75 322.35 463.95 322.35 469.2 318.9 472.8 315.45 476.4 310.5 476.4 305.5 476.4 302.05 472.8 298.55 469.2 298.55 463.95 298.55 458.75 302.05 455.1 305.5 451.5 310.5 451.5 315.45 451.5 318.9 455.1
M 251.1 427.6
L 244.85 427.6 244.85 480.35 251.1 480.35 251.1 453.85 279.15 453.85 279.15 480.35 285.55 480.35 285.55 427.6 279.15 427.6 279.15 447.9 251.1 447.9 251.1 427.6 Z"/>
</g>
</defs>

<g transform="matrix( 12.100875854492188, 0, 0, 8.482864379882812, -3185.35,-160.55) ">
<use xlink:href="#Layer0_0_MEMBER_0_FILL"/>
</g>

<g transform="matrix( 8.482864379882812, 0, 0, 8.482864379882812, 481.95,109) ">
<g transform="matrix( 1, 0, 0, 1, 0,0) ">
<use filter="url(#Filter_1)" xlink:href="#flash0_ai_Layer_2__Path__0_Layer0_0_FILL"/>
</g>
</g>

<g transform="matrix( 1, 0, 0, 1, 0,0) ">
<use xlink:href="#Layer0_0_MEMBER_2_FILL"/>
</g>
</svg>
