
<svg xmlns="http://www.w3.org/2000/svg" version="1.1" xmlns:xlink="http://www.w3.org/1999/xlink" preserveAspectRatio="none" x="0px" y="0px" width="1300px" height="1080px" viewBox="0 0 1300 1080">
<defs>
<filter id="Filter_1" x="-20%" y="-20%" width="140%" height="140%" color-interpolation-filters="sRGB">
<feColorMatrix in="SourceGraphic" type="matrix" values="1 0 0 0 0 0 1 0 0 0 0 0 1 0 0 0 0 0 0.71 0" result="result1"/>
</filter>

<g id="Layer0_0_MEMBER_0_FILL">
<path fill="#F2EAD5" stroke="none" d="
M 341.05 127.7
Q 341.15 127.7 341.3 127.9
L 341.9 128.05 342 128.05
Q 342.05 128.15 342.2 128.25 342.3 128.25 342.3 128.1 342.25 127.95 342.4 127.85 342.55 127.7 342.7 127.75 342.8 128.1 343.15 128 343.55 127.85 343.55 128.3 343.7 128.15 343.65 127.9 344.05 128.1 344.6 128.1 344.7 128.05 344.85 128.15 344.95 128.25 345.05 128.15 345.05 128.1 345.1 128 345.55 127.65 345.75 127.7 345.85 127.8 345.85 127.65 345.85 127.45 346.35 127.05 346.5 126.95 346.75 127.05
L 346.75 127 347.1 127 347.2 127.05
Q 347.3 127.15 347.4 127.1 347.5 127.05 347.5 126.95
L 347.55 126.85 347.7 126.75 347.75 126.7
Q 348 126.55 348.1 126.8 348.25 126.8 348.4 126.65 348.6 126.5 348.7 126.5 348.85 126.75 349.15 126.55 349.7 126.65 349.85 126.55
L 349.9 126.6
Q 349.9 126.8 350.1 126.8 350.25 126.75 350.7 126.85 350.75 126.8 350.65 126.65 350.75 126.65 350.9 126.6
L 351.05 126.75 351.05 127.25
Q 351.05 127.5 351.2 127.55 351.3 127.5 351.5 127.6 351.65 127.6 351.65 127.45 351.65 126.9 351.9 126.85
L 351.9 126.7
Q 352 126.55 352.2 126.6
L 352.45 126.7 352.45 126.75
Q 352.85 126.75 352.8 127.15 352.8 127.2 352.85 127.35 352.85 127.45 352.75 127.5 352.8 127.6 352.85 127.6 353.25 127.6 353.3 127.45 353.4 127.3 353.6 127.4 354 127.5 354.1 127.45 354.35 127.4 354.4 127.6 354.45 127.8 354.85 127.8 354.8 127.65 354.9 127.65
L 355.1 127.65
Q 354.95 127.55 355 127.45 355.05 127.4 355.2 127.45
L 355.4 127.4 355.5 127.45 355.7 127.45 356.2 127.3 356.4 127.3 356.5 127.4
Q 356.65 127.4 356.65 127.25
L 356.7 127.35
Q 356.7 127.55 356.8 127.55
L 356.8 127.3
Q 356.85 127.35 357.05 127.35
L 357.15 127.35
Q 357.45 127.25 357.4 127.1
L 357.4 127.05
Q 357.6 126.9 357.7 127 357.9 127 358.3 127.05 358.6 127.1 358.8 126.9 359.05 126.75 359.55 126.95
L 359.65 126.95 359.65 127 359.7 127.1
Q 359.8 127.25 360.1 127.2
L 360.15 127.25 360.15 45 273.75 45 273.75 131.75
Q 273.95 131.65 274.3 131.8
L 274.25 131.85 274.25 131.95 274.4 132.1
Q 274.6 132.2 274.7 131.9
L 274.75 131.9
Q 274.75 132.1 274.9 132
L 274.95 132.05 275.1 132.15 275.15 132.2 275.4 132.3 275.5 132.2 275.6 132.2 275.7 132.25
Q 275.9 132.3 276.05 132.25
L 276.1 132.2 276.15 132.25
Q 276.3 132.4 276.65 132.5 276.75 132.6 277 132.6 277.2 132.8 277.45 132.6 278 132.4 278.2 132.5 278.35 132.65 278.35 132.5 278.4 132.6 278.55 132.6 278.75 132.55 278.8 132.6 278.5 132.6 278.5 132.75 278.55 133.05 278.85 133.25 279.15 133.45 279.4 133.35
L 280.25 133.1
Q 280.6 133.1 280.65 132.8 280.75 132.85 280.85 132.95 281 133 281.1 132.9 281.1 132.75 281.2 132.75 281.4 132.75 281.5 132.65
L 281.6 132.65
Q 281.7 132.7 281.85 132.6 282.05 132.6 282.5 132.7 282.7 132.6 283.15 132.8 283.25 132.9 283.55 132.8 283.9 132.7 283.9 133.1
L 283.9 133.3 283.95 133.35 284.2 133.4 284.3 133.35 284.4 133.1 285.3 133.1 285.5 132.9
Q 285.55 132.95 286.15 133.2
L 286.35 133
Q 286.45 133.05 286.7 132.8 287 132.9 287.2 132.75
L 287.2 132.7 287.25 132.7 287.3 132.65
Q 287.35 132.45 287.2 132.35 287.65 132.25 287.75 132 287.8 131.8 287.95 131.95 288.1 132.2 288.25 132
L 288.3 131.9
Q 288.3 131.45 288.7 131.25
L 288.8 131.05 289.05 130.95
Q 289.15 130.9 289.3 131.05 289.5 131.05 289.55 131.2 289.8 131.3 290 131.15
L 290.05 131.1 290.1 131.1
Q 290.3482421875 130.951171875 290.3 130.9
L 290.45 131.05
Q 290.6 131.2 290.65 131.2
L 290.75 131.2
Q 291.05 131.1 290.85 130.85 290.7 130.7 290.75 130.65
L 290.9 130.7
Q 291.15 131 291.6 131 291.75 130.95 291.85 131 292.5 131.1 292.95 130.9 293.25 130.85 293.5 130.9 293.6 130.9 293.7 130.65 293.75 130.55 293.85 130.5 294 130.45 294.05 130.55 294.1 130.6 294.45 130.85
L 295.05 130.7
Q 295.3 130.7 295.15 130.55 295 130.2 295.2 130 295.35 130.2 295.45 130.65
L 295.6 130.35
Q 295.65 130.35 295.6 130.3 295.45 130.25 295.45 129.85
L 295.95 129.85
Q 296.3 129.8 296.9 129.5 297.4 129.35 297.7 129.7 297.95 129.95 298.05 129.95 298.15 129.95 298.45 129.8 298.6 129.7 298.85 129.75 299.1 129.8 299.2 129.95
L 299.3 130.05 299.5 130.1
Q 299.65 129.95 299.55 129.8 299.45 129.7 299.55 129.6
L 299.65 129.55
Q 299.8 129.25 300.15 129.5 300.35 129.7 300.5 129.5 300.5 129.7 300.65 129.7
L 300.7 129.7 300.8 129.85
Q 300.85 129.85 300.9 130 300.95 130.05 301 130 301.3 130 301.2 129.75 301.15 129.7 301.2 129.7
L 301.3 129.7 301.4 129.65
Q 301.4 129.85 301.75 129.95 301.7 130.1 301.85 130.45
L 302 130.75
Q 302.1 130.8 302.2 130.7 302.25 130.65 302.3 130.5
L 302.35 130.75
Q 302.4 130.85 302.25 130.95 302.25 131.15 302.3 131.1 302.5 130.95 302.75 131.1
L 303.05 131.25
Q 303.15 131.35 303.15 131.25
L 303.2 131.2 303.2 131.05
Q 303.35 131.1 303.4 131.35
L 303.6 131.45
Q 303.7 131.4 303.7 131.2
L 303.65 131.15 303.7 131.15 303.8 131.4
Q 303.85 131.55 304 131.6 304.05 131.55 304.2 131.6
L 304.15 131.5
Q 304 131.4 304.1 131.3 304.2 131.15 304.3 131.35 304.4 131.25 304.25 131.05 304.3 131 304.4 131 304.55 131 304.55 130.9
L 304.2 130.85
Q 304.3 130.8 304.3 130.3 304.75 130.65 304.75 130.7 304.8 130.75 304.8 130.9 304.85 131.05 304.95 131.1 305.1 131.3 305.4 131.3 305.8 131.25 305.9 131.3 306 131.35 306.1 131.7 306.2 132 306.4 131.9 306.6 131.65 306.4 131.15
L 306.5 131.15
Q 306.7 131.45 306.85 131.5 306.95 131.5 307.35 131.4
L 307.5 131.35
Q 307.7 131.55 308 131.25
L 308 131.3
Q 308.1 131.4 308.1 131.35 308.2 131.25 308.05 131.25
L 308.05 131.2
Q 308.3 130.4 308.45 130.3
L 308.55 130.15
Q 308.65 129.9 308.5 129.75 308.35 129.6 308.2 129.7 307.9 129.75 308.1 130.05 307.9 130 307.95 129.85 308 129.7 308 129.65
L 308.3 129.65 308.55 129.55 308.65 129.6 308.7 129.55 308.8 129.6 309 129.55 309.05 129.55
Q 308.95 129.9 309.25 130.1 309.4 130.25 309.55 130.15 309.7 130.1 309.55 129.95 309.5 129.8 309.7 129.8 309.8 129.9 310 130.15
L 310 130.2
Q 310.15 130.3 310.3 130.15
L 310.35 130.25
Q 310.45 130.15 310.45 129.95
L 310.6 129.95
Q 310.65 130.05 310.85 130.05 311.05 130.45 311.3 130.3
L 311.35 130.3
Q 311.6 130.4 311.6 130.05 311.65 130.15 311.75 130.15 311.9 130.15 311.9 130
L 312.15 129.55 312.35 129.65
Q 312.45 129.7 312.45 129.8 312.65 129.65 313.05 129.75 313.1 129.8 313.1 129.9 313 130.15 313 130.65 313 130.85 313.15 130.7
L 313.3 130.65
Q 313.6 130.75 313.6 130.55 313.75 130.2 313.6 130.05
L 313.25 129.75
Q 313.3 129.7 313.6 129.7 313.6 130.1 314 130.7 314.1 130.9 314.35 130.8
L 314.75 130.8 314.75 130.85 314.85 130.95 315.05 131 314.85 130.85
Q 314.9 130.8669921875 314.9 130.8 315.3 130.7 315.3 130.45 315.45 130.35 315.55 130.4 315.6 130.4 315.7 130.5
L 315.75 130.7
Q 315.85 130.6 316 130.4 316.15 130.25 316.35 130.3 316.45 130.35 316.35 130.15 316.55 130.3 317.05 130.35
L 317.2 130.4
Q 317.25 130.55 317.5 130.6 317.65 130.75 317.7 130.7 317.85 130.7 317.8 130.45 318.15 130.45 318.3 130.6
L 318.3 130.3 318.55 130.45 318.85 130.4
Q 319.4 130.15 319.7 129.7
L 319.7 129.65
Q 319.9 129.55 319.95 129.6 320.3 129.85 320.35 129.45 320.7 130 321.35 129.75
L 321.55 129.8 321.8 129.8
Q 321.75 129.65 321.6 129.55
L 321.35 129.35
Q 321.05 129.15 321.4 129.15 321.6 129.45 322.3 129.5 322.55 129.65 323.1 129.35 323.15 129.5 323.45 129.5 323.55 129.4 323.65 129.65
L 323.95 129.7
Q 324.75 129.9 325.1 129.65
L 325.15 129.65 325.35 129.7
Q 325.75 129.8 325.95 130
L 326.15 130.05
Q 326.45 129.7 326.4 129.4 326.65 129.6 326.95 129.4 327.15 129.4 327.15 129.45
L 327.2 129.45 327.45 129.5
Q 327.55 129.55 327.65 129.5 327.85 129.75 328.05 129.65 328.15 129.6 328.35 129.45 328.4 129.05 328.75 129.25
L 328.9 129.3
Q 329.1 129.2 329.2 129.35 329.3 129.45 329.5 129.5 329.7 129.5 329.8 129.4 329.95 129.25 330.15 129.3 330.25 129.4 330.3 129.25
L 330 129.05 330.15 128.9 330.3 128.85 330.35 128.7
Q 330.45 128.65 330.55 128.7 330.7 128.85 330.75 128.75 330.8 128.6 331.1 128.6
L 331.1 128.65
Q 331.1 128.8 331.2 128.75
L 331.6 129
Q 331.8 129.2 331.8 129 331.85 128.75 332.25 128.9 332.75 129 333 128.9
L 333.1 128.45
Q 333.15 128.6 333.35 128.75 333.5 128.9 333.55 129.1
L 333.55 128.4
Q 333.55 128.15 333.75 128.15 333.85 128.05 333.85 128.25 333.95 128.35 334 128.3 334.2 128.3 334.05 128.15 334 128.05 334.05 128
L 334.2 127.9 334.45 127.55 334.55 127.55 334.65 127.6
Q 334.8 127.7 334.9 127.6 335.1 127.5 335.5 127.5
L 335.8 127.45
Q 336.15 127.35 336.35 127.45 336.5 127.5 336.6 127.4
L 336.65 127.3 337.1 127.85 337.4 128 337.5 127.95
Q 337.4 127.7 337.7 127.75 337.8 127.7 337.75 127.65 337.65 127.35 337.5 127.25 337.4 127.15 337.4 127.1
L 337.6 127
Q 337.7 126.9 337.7 127.1 337.75 127.3 338 127.45 338.1 127.55 338.15 127.45
L 338.2 127.35
Q 337.95 127.25 338.05 127.1 338.1 127.05 338.2 126.95
L 338.2 126.9
Q 338.35 126.9 338.45 127.1 338.65 127.3 338.8 127.25
L 338.85 127.3 338.9 127.3 339.05 127.45
Q 339.05 127.6 338.9 127.85 338.9 128.05 339 127.95 339.1 127.9 339.35 128 339.5 128.2 339.5 128 339.55 127.85 339.75 127.9
L 340.05 128.15
Q 340.2 128.3 340.4 128.2 340.5 128.1 340.45 127.95
L 340.15 127.65
Q 339.7 127.65 339.6 127.1 339.6 126.95 339.65 126.95 339.7 127.05 339.95 127.15
L 340.05 127.2 340.05 127.25
Q 340.25 127.4 340.6 127.8
L 340.6 127.55
Q 340.9 127.75 341.05 127.7 Z"/>
</g>

<g id="flash0_ai_Layer_2__Path__0_Layer0_0_FILL">
<path fill="#EE9A5A" stroke="none" d="
M 34.95 5.3
Q 34.65 4.85 35 4.25 35.35 3.65 35.95 3.7
L 33.7 2.3 35.35 0 19.4 5.75
Q 6.5 10.35 0 13.7
L 3.15 13.3 1.05 15.6 4.45 15.75 2.3 18.05 5.75 18.2
Q 4.65 19.5 3.05 20.5 6.5 19.95 7.35 21.4 5.55 22.1 4.45 23.35 5.85 23.95 7.4 23.5
L 5.95 26.45 25.65 18.55
Q 35.1 14.75 39.65 13.55 38.5 13.65 37.5 13.1
L 38.9 11.05 36.3 10.5 37.8 9.2
Q 36.8 8.5 35.65 8.3 35.95 7.15 37.05 6.35 35.35 5.9 34.95 5.3 Z"/>
</g>

<g id="Layer0_0_MEMBER_2_FILL">
<path fill="#2F431E" stroke="none" d="
M 862.1 721.65
Q 855 721.65 850.65 725.65 846.25 729.65 846.25 736.1 846.25 741.05 849.15 744.55 852.05 747.95 860.8 752.2 861.35 752.45 862.45 753 870.15 756.65 870.15 761.3 870.15 764.85 867.9 767 865.65 769.1 861.8 769.1 857.8 769.1 855.2 767.25 852.6 765.4 851.6 761.85
L 844.8 765.05
Q 846.1 770.8 850.45 773.9 854.7 777 861.45 777 869.5 777 874.2 772.6 878.95 768.2 878.95 760.7 878.95 755.55 876 752.1 873.1 748.65 865.3 745.05 864.9 744.85 864.2 744.55 855.25 740.45 855.25 735.65 855.25 732.65 857.3 730.85 859.35 729.05 862.8 729.05 865.25 729.05 867.15 730.2 869.05 731.35 870.6 733.85
L 877.3 730.35
Q 875.8 726.15 871.9 723.9 867.95 721.65 862.1 721.65
M 807.1 722.85
L 807.1 730.1 821.1 730.1 821.1 775.6 829.7 775.6 829.7 730.1 843.65 730.1 843.65 722.85 807.1 722.85
M 783.6 741.45
L 775.8 741.45 775.8 747
Q 774.4 743.75 771.45 742 768.45 740.25 764.3 740.25 757.45 740.25 753.2 745.3 748.95 750.3 748.95 758.5 748.95 767.1 753.1 772.05 757.25 777 764.5 777 768.1 777 770.9 775.55 773.7 774.1 775.8 771.15
L 775.8 775.6 783.6 775.6 783.6 741.45
M 759.55 767.1
Q 757.1 764.15 757.1 758.7 757.1 753.3 759.65 750.25 762.2 747.2 766.65 747.2 771.05 747.2 773.55 750.15 776 753.1 776 758.4 776 763.65 773.35 766.85 770.7 770.05 766.5 770.05 762 770.05 759.55 767.1
M 712.6 745.3
Q 708.35 750.3 708.35 758.5 708.35 767.1 712.5 772.05 716.65 777 723.9 777 727.5 777 730.3 775.55 733.1 774.1 735.2 771.15
L 735.2 775.6 743 775.6 743 719.75 735.2 719.75 735.2 747
Q 733.8 743.75 730.85 742 727.85 740.25 723.7 740.25 716.85 740.25 712.6 745.3
M 725.9 770.05
Q 721.4 770.05 718.95 767.1 716.5 764.15 716.5 758.7 716.5 753.3 719.05 750.25 721.6 747.2 726.05 747.2 730.45 747.2 732.95 750.15 735.4 753.1 735.4 758.4 735.4 763.65 732.75 766.9 730.15 770.05 725.9 770.05
M 682.5 741.45
L 674.7 741.45 674.7 747
Q 673.3 743.75 670.35 742 667.35 740.25 663.2 740.25 656.35 740.25 652.1 745.3 647.85 750.3 647.85 758.5 647.85 767.1 652 772.05 656.15 777 663.4 777 667 777 669.8 775.55 672.6 774.1 674.7 771.15
L 674.7 775.6 682.5 775.6 682.5 741.45
M 674.9 758.4
Q 674.9 763.65 672.25 766.85 669.6 770.05 665.4 770.05 660.9 770.05 658.45 767.1 656 764.15 656 758.7 656 753.3 658.55 750.25 661.1 747.2 665.55 747.2 669.95 747.2 672.45 750.15 674.9 753.1 674.9 758.4
M 600.7 741.45
L 592.85 741.45 592.85 775.6 600.7 775.6 600.7 741.45
M 601.6 726.65
Q 601.6 724.55 600.25 723.2 598.85 721.8 596.75 721.8 594.75 721.8 593.3 723.25 591.8 724.7 591.8 726.65 591.8 728.7 593.3 730.15 594.75 731.6 596.75 731.6 598.8 731.6 600.2 730.2 601.6 728.75 601.6 726.65
M 616.85 741.45
L 609.5 741.45 609.5 775.6 617.35 775.6 617.35 760.05
Q 617.35 755.8 617.7 753.9 618 751.95 618.9 750.75 620.1 748.9 622.25 747.9 624.4 746.9 627.15 746.9 631.3 746.9 632.95 749.1 634.6 751.3 634.6 758.05
L 634.6 775.6 642.5 775.6 642.5 754.9
Q 642.5 750.2 642.1 748.3 641.7 746.45 640.8 745.05 639.25 742.65 636.6 741.45 633.9 740.25 630.1 740.25 625.55 740.25 622.35 741.85 619.2 743.5 616.85 747
L 616.85 741.45
M 553.7 745.3
Q 549.45 750.3 549.45 758.5 549.45 767.1 553.6 772.05 557.75 777 565 777 568.6 777 571.4 775.55 574.2 774.1 576.3 771.15
L 576.2 775.7
Q 576.15 780.85 574 783.05 571.8 785.25 566.75 785.25 563.4 785.25 561.5 784.1 559.65 782.95 559.45 780.75
L 551.05 780.8
Q 551.15 785.75 555.35 788.7 559.55 791.65 566.6 791.65 576.1 791.65 580.1 787.6 584.1 783.5 584.1 773.45
L 584.1 741.45 576.3 741.45 576.3 747
Q 574.9 743.75 571.95 742 568.95 740.25 564.8 740.25 557.95 740.25 553.7 745.3
M 557.6 758.7
Q 557.6 753.3 560.15 750.25 562.7 747.2 567.15 747.2 571.55 747.2 574.05 750.15 576.5 753.1 576.5 758.4 576.5 763.65 573.85 766.85 571.2 770.05 567 770.05 562.5 770.05 560.05 767.1 557.6 764.15 557.6 758.7
M 537.65 726.45
L 529.55 726.45 522.7 736.25 527.15 736.25 537.65 726.45
M 543.5 741.45
L 535.7 741.45 535.7 747
Q 534.3 743.75 531.35 742 528.35 740.25 524.2 740.25 517.35 740.25 513.1 745.3 508.85 750.3 508.85 758.5 508.85 767.1 513 772.05 517.15 777 524.4 777 528 777 530.8 775.55 533.6 774.1 535.7 771.15
L 535.7 775.6 543.5 775.6 543.5 741.45
M 519.45 767.1
Q 517 764.15 517 758.7 517 753.3 519.55 750.25 522.1 747.2 526.55 747.2 530.95 747.2 533.45 750.15 535.9 753.1 535.9 758.4 535.9 763.65 533.25 766.85 530.6 770.05 526.4 770.05 521.9 770.05 519.45 767.1
M 430.2 742
Q 427.2 740.25 423.05 740.25 416.2 740.25 411.95 745.3 407.7 750.3 407.7 758.5 407.7 767.1 411.85 772.05 416 777 423.25 777 426.85 777 429.65 775.55 432.45 774.1 434.55 771.15
L 434.55 775.6 442.35 775.6 442.35 741.45 434.55 741.45 434.55 747
Q 433.15 743.75 430.2 742
M 434.75 758.4
Q 434.75 763.65 432.1 766.85 429.45 770.05 425.25 770.05 420.75 770.05 418.3 767.1 415.85 764.15 415.85 758.7 415.85 753.3 418.4 750.25 420.95 747.2 425.4 747.2 429.8 747.2 432.3 750.15 434.75 753.1 434.75 758.4
M 478.6 741.45
L 470.75 741.45 470.75 791.65 478.6 791.65 478.6 771.15
Q 480.65 774.1 483.5 775.55 486.25 777 489.85 777 497.1 777 501.3 772.05 505.45 767.1 505.45 758.5 505.45 750.3 501.2 745.3 496.95 740.25 490.15 740.25 485.95 740.25 482.95 742 479.95 743.8 478.6 747
L 478.6 741.45
M 481 766.9
Q 478.3 763.7 478.3 758.4 478.3 753.1 480.8 750.15 483.3 747.2 487.75 747.2 492.15 747.2 494.7 750.25 497.25 753.3 497.25 758.7 497.25 764.15 494.85 767.1 492.4 770.05 487.95 770.05 483.6 770.05 481 766.9
M 341.4 740.25
Q 338.35 740.25 336.3 741.85 334.2 743.5 332.95 746.9
L 332.95 741.35 325.1 741.35 325.1 775.6 332.95 775.6 332.95 760.6
Q 332.95 753.25 334.6 750.15 336.3 747 340.2 747 341.65 747 342.85 747.4 344 747.7 345 748.45
L 347.8 741.8
Q 346.25 741.05 344.7 740.65 343.05 740.25 341.4 740.25
M 381.85 741.45
L 374.05 741.45 374.05 747
Q 372.65 743.75 369.7 742 366.7 740.25 362.55 740.25 355.7 740.25 351.45 745.3 347.2 750.3 347.2 758.5 347.2 767.1 351.35 772.05 355.5 777 362.75 777 366.35 777 369.15 775.55 371.95 774.1 374.05 771.15
L 374.05 775.6 381.85 775.6 381.85 741.45
M 357.8 767.1
Q 355.35 764.15 355.35 758.7 355.35 753.3 357.9 750.25 360.45 747.2 364.9 747.2 369.3 747.2 371.8 750.15 374.25 753.1 374.25 758.4 374.25 763.65 371.6 766.85 368.95 770.05 364.75 770.05 360.25 770.05 357.8 767.1
M 316.65 741.45
L 308.85 741.45 308.85 747
Q 307.45 743.75 304.5 742 301.5 740.25 297.35 740.25 290.5 740.25 286.25 745.3 282 750.3 282 758.5 282 767.1 286.15 772.05 290.3 777 297.55 777 301.15 777 303.95 775.55 306.75 774.1 308.85 771.15
L 308.85 775.6 316.65 775.6 316.65 741.45
M 309.05 758.4
Q 309.05 763.65 306.4 766.85 303.75 770.05 299.55 770.05 295.05 770.05 292.6 767.1 290.15 764.15 290.15 758.7 290.15 753.3 292.7 750.25 295.25 747.2 299.7 747.2 304.1 747.2 306.6 750.15 309.05 753.1 309.05 758.4
M 251.75 741.45
L 243.9 741.45 243.9 791.65 251.75 791.65 251.75 771.15
Q 253.8 774.1 256.65 775.55 259.4 777 263 777 270.25 777 274.45 772.05 278.6 767.1 278.6 758.5 278.6 750.3 274.35 745.3 270.1 740.25 263.3 740.25 259.1 740.25 256.1 742 253.1 743.8 251.75 747
L 251.75 741.45
M 270.4 758.7
Q 270.4 764.15 268 767.1 265.55 770.05 261.1 770.05 256.75 770.05 254.15 766.9 251.45 763.7 251.45 758.4 251.45 753.1 253.95 750.15 256.45 747.2 260.9 747.2 265.3 747.2 267.85 750.25 270.4 753.3 270.4 758.7
M 846.35 621.35
L 838.55 621.35 838.55 648.6
Q 837.15 645.35 834.2 643.6 831.2 641.85 827.05 641.85 820.2 641.85 815.95 646.9 811.7 651.9 811.7 660.1 811.7 668.7 815.85 673.65 820 678.6 827.25 678.6 830.85 678.6 833.65 677.15 836.45 675.7 838.55 672.75
L 838.55 677.2 846.35 677.2 846.35 621.35
M 836.3 651.75
Q 838.75 654.7 838.75 660 838.75 665.25 836.1 668.5 833.5 671.65 829.25 671.65 824.75 671.65 822.3 668.7 819.85 665.75 819.85 660.3 819.85 654.9 822.4 651.85 824.95 648.8 829.4 648.8 833.8 648.8 836.3 651.75
M 863 643.05
L 855.15 643.05 855.15 677.2 863 677.2 863 643.05
M 863.9 628.25
Q 863.9 626.15 862.55 624.8 861.15 623.4 859.05 623.4 857.05 623.4 855.6 624.85 854.1 626.3 854.1 628.25 854.1 630.3 855.6 631.75 857.05 633.2 859.05 633.2 861.1 633.2 862.5 631.8 863.9 630.35 863.9 628.25
M 929.25 661.25
L 929.25 659.8
Q 929.25 651.3 924.65 646.55 920.05 641.85 911.8 641.85 903.9 641.85 898.9 647.05 893.85 652.2 893.85 660.25 893.85 668.6 898.7 673.6 903.55 678.6 911.8 678.6 917.5 678.6 921.75 676.1 926 673.55 928.9 668.4
L 922.3 664.75
Q 920.45 668.25 917.9 669.85 915.4 671.45 911.6 671.45 907.35 671.45 904.8 668.75 902.25 666.05 901.95 661.25
L 929.25 661.25
M 911.9 648.5
Q 916 648.5 918.35 650.4 920.7 652.35 921.15 656
L 902.45 656
Q 903.4 652.2 905.75 650.35 908.05 648.5 911.9 648.5
M 894.45 643.4
Q 892.9 642.65 891.35 642.25 889.7 641.85 888.05 641.85 885 641.85 882.95 643.45 880.85 645.1 879.6 648.5
L 879.6 642.95 871.75 642.95 871.75 677.2 879.6 677.2 879.6 662.2
Q 879.6 654.85 881.25 651.75 882.95 648.6 886.85 648.6 888.3 648.6 889.5 649 890.65 649.3 891.65 650.05
L 894.45 643.4
M 971.15 641.85
Q 967.45 641.85 964 643.2 960.6 644.6 957.95 647.15 955.3 649.75 953.85 653.1 952.45 656.4 952.45 660.15 952.45 663.9 953.85 667.2 955.25 670.55 957.95 673.2 960.6 675.85 964.05 677.25 967.45 678.6 971.15 678.6 974.95 678.6 978.4 677.25 981.8 675.85 984.6 673.15 987.3 670.55 988.7 667.25 990.05 663.95 990.05 660.15 990.05 656.5 988.65 653.2 987.25 649.9 984.55 647.25 981.85 644.6 978.45 643.2 975.05 641.85 971.15 641.85
M 963.8 652.2
Q 966.85 648.85 971.25 648.85 975.7 648.85 978.75 652.2 981.8 655.45 981.8 660.25 981.8 665 978.75 668.3 975.65 671.6 971.25 671.6 966.85 671.6 963.8 668.3 960.7 665 960.7 660.25 960.7 655.45 963.8 652.2
M 936.85 630.1
L 936.85 643.05 930.85 643.05 930.85 649.9 936.85 649.9 936.85 677.2 944.65 677.2 944.65 649.9 950.65 649.9 950.65 643.05 944.65 643.05 944.65 630.1 936.85 630.1
M 751.15 643.05
L 742.65 643.05 735.25 660.25
Q 734.55 661.8 734.05 663.3 733.55 664.85 733.2 666.4 732.65 664.2 732.15 662.6 731.65 661 731.3 660.25
L 723.85 643.05 715.3 643.05 733.2 679.25 751.15 643.05
M 779.95 628.05
L 771.85 628.05 765 637.85 769.45 637.85 779.95 628.05
M 785.8 643.05
L 778 643.05 778 648.6
Q 776.6 645.35 773.65 643.6 770.65 641.85 766.5 641.85 759.65 641.85 755.4 646.9 751.15 651.9 751.15 660.1 751.15 668.7 755.3 673.65 759.45 678.6 766.7 678.6 770.3 678.6 773.1 677.15 775.9 675.7 778 672.75
L 778 677.2 785.8 677.2 785.8 643.05
M 761.85 651.85
Q 764.4 648.8 768.85 648.8 773.25 648.8 775.75 651.75 778.2 654.7 778.2 660 778.2 665.25 775.55 668.45 772.9 671.65 768.7 671.65 764.2 671.65 761.75 668.7 759.3 665.75 759.3 660.3 759.3 654.9 761.85 651.85
M 541 643.05
L 533.2 643.05 533.2 648.6
Q 531.8 645.35 528.85 643.6 525.85 641.85 521.7 641.85 514.85 641.85 510.6 646.9 506.35 651.9 506.35 660.1 506.35 668.7 510.5 673.65 514.65 678.6 521.9 678.6 525.5 678.6 528.3 677.15 531.1 675.7 533.2 672.75
L 533.2 677.2 541 677.2 541 643.05
M 514.5 660.3
Q 514.5 654.9 517.05 651.85 519.6 648.8 524.05 648.8 528.45 648.8 530.95 651.75 533.4 654.7 533.4 660 533.4 665.25 530.75 668.45 528.1 671.65 523.9 671.65 519.4 671.65 516.95 668.7 514.5 665.75 514.5 660.3
M 601.05 631.7
L 601.05 624.45 564.5 624.45 564.5 631.7 578.5 631.7 578.5 677.2 587.1 677.2 587.1 631.7 601.05 631.7
M 619.55 623.25
Q 612.45 623.25 608.1 627.25 603.7 631.25 603.7 637.7 603.7 642.65 606.6 646.15 609.5 649.55 618.25 653.8 618.8 654.05 619.9 654.6 627.6 658.25 627.6 662.9 627.6 666.45 625.35 668.6 623.1 670.7 619.25 670.7 615.25 670.7 612.65 668.85 610.05 667 609.05 663.45
L 602.25 666.65
Q 603.55 672.4 607.9 675.5 612.15 678.6 618.9 678.6 626.95 678.6 631.65 674.2 636.4 669.8 636.4 662.3 636.4 657.15 633.45 653.7 630.55 650.25 622.75 646.65 622.35 646.45 621.65 646.15 612.7 642.05 612.7 637.25 612.7 634.25 614.75 632.45 616.8 630.65 620.25 630.65 622.7 630.65 624.6 631.8 626.5 632.95 628.05 635.45
L 634.75 631.95
Q 633.25 627.75 629.35 625.5 625.4 623.25 619.55 623.25
M 360.2 643.05
L 352.4 643.05 352.4 648.6
Q 351 645.35 348.05 643.6 345.05 641.85 340.9 641.85 334.05 641.85 329.8 646.9 325.55 651.9 325.55 660.1 325.55 668.7 329.7 673.65 333.85 678.6 341.1 678.6 344.7 678.6 347.5 677.15 350.3 675.7 352.4 672.75
L 352.4 693.25 360.2 693.25 360.2 643.05
M 350.15 651.75
Q 352.6 654.7 352.6 660 352.6 665.3 350 668.5 347.35 671.65 343.1 671.65 338.6 671.65 336.15 668.7 333.7 665.75 333.7 660.3 333.7 654.9 336.25 651.85 338.8 648.8 343.25 648.8 347.65 648.8 350.15 651.75
M 401.5 643.05
L 393.65 643.05 393.65 662.3
Q 393.65 667.25 391.6 669.4 389.55 671.6 384.95 671.6 380.35 671.6 378.3 669.4 376.2 667.25 376.2 662.3
L 376.2 643.05 368.4 643.05 368.4 659.95
Q 368.4 669.8 372.35 674.2 376.25 678.6 385 678.6 393.65 678.6 397.55 674.15 401.5 669.75 401.5 659.95
L 401.5 643.05
M 442.4 661.25
L 442.4 659.8
Q 442.4 651.3 437.8 646.55 433.2 641.85 424.95 641.85 417.05 641.85 412.05 647.05 407 652.2 407 660.25 407 668.6 411.85 673.6 416.7 678.6 424.95 678.6 430.65 678.6 434.9 676.1 439.15 673.55 442.05 668.4
L 435.45 664.75
Q 433.6 668.25 431.05 669.85 428.55 671.45 424.75 671.45 420.5 671.45 417.95 668.75 415.4 666.05 415.1 661.25
L 442.4 661.25
M 431.5 650.4
Q 433.85 652.35 434.3 656
L 415.6 656
Q 416.55 652.2 418.9 650.35 421.2 648.5 425.05 648.5 429.15 648.5 431.5 650.4
M 475.4 643.05
L 468.05 643.05 468.05 677.2 475.9 677.2 475.9 661.65
Q 475.9 657.4 476.25 655.5 476.55 653.55 477.45 652.35 478.65 650.5 480.8 649.5 482.95 648.5 485.7 648.5 489.85 648.5 491.5 650.7 493.15 652.9 493.15 659.65
L 493.15 677.2 501.05 677.2 501.05 656.5
Q 501.05 651.8 500.65 649.9 500.25 648.05 499.35 646.65 497.8 644.25 495.15 643.05 492.45 641.85 488.65 641.85 484.1 641.85 480.9 643.45 477.75 645.1 475.4 648.6
L 475.4 643.05
M 319.25 643.05
L 311.4 643.05 311.4 677.2 319.25 677.2 319.25 643.05
M 318.8 624.8
Q 317.4 623.4 315.3 623.4 313.3 623.4 311.85 624.85 310.35 626.3 310.35 628.25 310.35 630.3 311.85 631.75 313.3 633.2 315.3 633.2 317.35 633.2 318.75 631.8 320.15 630.35 320.15 628.25 320.15 626.15 318.8 624.8
M 302.3 621.35
L 294.45 621.35 294.45 677.2 302.3 677.2 302.3 621.35
M 665.2 647.05
Q 660.15 652.2 660.15 660.25 660.15 668.6 665 673.6 669.85 678.6 678.1 678.6 683.8 678.6 688.05 676.1 692.3 673.55 695.2 668.4
L 688.6 664.75
Q 686.75 668.25 684.2 669.85 681.7 671.45 677.9 671.45 673.65 671.45 671.1 668.75 668.55 666.05 668.25 661.25
L 695.55 661.25 695.55 659.8
Q 695.55 651.3 690.95 646.55 686.35 641.85 678.1 641.85 670.2 641.85 665.2 647.05
M 687.45 656
L 668.75 656
Q 669.7 652.2 672.05 650.35 674.35 648.5 678.2 648.5 682.3 648.5 684.65 650.4 687 652.35 687.45 656
M 286.9 637.25
L 287.35 628.6
Q 283.4 625.9 279.2 624.55 274.95 623.2 270.3 623.2 264.4 623.2 259.35 625.2 254.25 627.2 250.3 631.05 246.4 634.95 244.35 640.05 242.25 645.15 242.25 650.95 242.25 656.75 244.35 661.9 246.4 667 250.25 670.8 254.15 674.65 259.3 676.6 264.4 678.6 270.45 678.6 275.2 678.6 279.3 677.4 283.35 676.15 286.85 673.65
L 286.85 663.95
Q 282.95 667.35 278.7 669 274.45 670.65 269.8 670.65 261.75 670.65 256.5 665.1 251.2 659.55 251.2 651 251.2 642.15 256.65 636.6 262.05 631.05 270.7 631.05 275.15 631.05 279.2 632.6 283.25 634.15 286.9 637.25
M 1047.2 563.1
L 1047.2 562
Q 1047.2 553.9 1042.95 549.2 1038.65 544.5 1031.35 544.5 1024.1 544.5 1019.5 549.45 1014.9 554.4 1014.9 562.15 1014.9 570.2 1019.55 575.2 1024.2 580.15 1031.7 580.15 1036.8 580.15 1040.65 577.9 1044.5 575.6 1047 571.15
L 1042.7 568.25
Q 1040.65 571.85 1038 573.65 1035.3 575.45 1032 575.45 1027.15 575.45 1024.1 572.2 1021.1 568.9 1021.1 563.6
L 1021.1 563.1 1047.2 563.1
M 1038.25 551.85
Q 1040.85 554.15 1041.15 558.55
L 1021.1 558.55
Q 1021.5 554.4 1024.25 551.95 1027 549.45 1031.1 549.45 1035.65 549.45 1038.25 551.85
M 1008.85 545.75
L 1003.25 545.75 1003.25 551.9
Q 1001.45 548.3 998.35 546.45 995.25 544.6 991.15 544.6 984.1 544.6 979.85 549.35 975.65 554.05 975.65 562.15 975.65 570.15 980 574.95 984.35 579.8 991.45 579.8 995.3 579.8 998.4 577.9 1001.5 576 1003.4 572.5
L 1003.4 578.05
Q 1003.4 581.05 1003.05 582.7 1002.75 584.3 1002 585.55 1000.75 587.7 998.35 588.8 995.95 589.9 992.55 589.9 987.85 589.9 985.3 587.85 982.75 585.85 982.75 582.15
L 982.75 581.7 976.4 581.7
Q 976.6 588 980.8 591.4 985 594.8 992.45 594.8 996.8 594.8 1000.15 593.6 1003.45 592.35 1005.75 589.9 1007.45 588.1 1008.15 585.8 1008.85 583.55 1008.85 578.15
L 1008.85 545.75
M 1000.35 553.4
Q 1003.4 556.8 1003.4 562.35 1003.4 568 1000.55 571.2 997.65 574.4 992.6 574.4 987.35 574.4 984.5 571.15 981.65 567.9 981.65 561.9 981.65 556.3 984.45 553.15 987.3 550.05 992.4 550.05 997.35 550.05 1000.35 553.4
M 763.1 544.6
Q 756.05 544.6 751.8 549.4 747.6 554.2 747.6 562.35 747.6 570.4 751.95 575.3 756.3 580.15 763.4 580.15 767.2 580.15 770.3 578.3 773.35 576.35 775.35 572.75
L 775.35 578.75 780.8 578.75 780.8 545.75 775.2 545.75 775.2 551.95
Q 773.35 548.3 770.3 546.45 767.25 544.6 763.1 544.6
M 756.4 553.3
Q 759.25 550.15 764.35 550.15 769.25 550.15 772.3 553.6 775.35 557 775.35 562.55 775.35 568.25 772.5 571.4 769.6 574.55 764.55 574.55 759.3 574.55 756.45 571.3 753.6 568.05 753.6 562.05 753.6 556.45 756.4 553.3
M 740.65 522.9
L 734.9 522.9 734.9 578.75 740.65 578.75 740.65 522.9
M 969.25 545.75
L 963.65 545.75 963.65 551.95
Q 961.8 548.3 958.75 546.45 955.7 544.6 951.55 544.6 944.5 544.6 940.25 549.4 936.05 554.2 936.05 562.35 936.05 570.4 940.4 575.3 944.75 580.15 951.85 580.15 955.65 580.15 958.75 578.3 961.8 576.35 963.8 572.75
L 963.8 578.75 969.25 578.75 969.25 545.75
M 960.75 553.6
Q 963.8 557 963.8 562.55 963.8 568.25 960.95 571.4 958.05 574.55 953 574.55 947.75 574.55 944.9 571.3 942.05 568.05 942.05 562.05 942.05 556.45 944.85 553.3 947.7 550.15 952.8 550.15 957.7 550.15 960.75 553.6
M 920.8 562.7
Q 920.8 556.2 923.05 553 925.3 549.75 929.75 549.75 930.55 549.75 931.4 549.9 932.3 550.05 933.25 550.4
L 935.15 545.3
Q 934.2 545 933.25 544.85 932.3 544.65 931.3 544.65 927.65 544.65 925.1 546.5 922.5 548.35 920.25 552.6
L 920.25 545.75 915.25 545.75 915.25 578.75 920.8 578.75 920.8 562.7
M 881.5 549.45
Q 876.9 554.4 876.9 562.15 876.9 570.2 881.55 575.2 886.2 580.15 893.7 580.15 898.8 580.15 902.65 577.9 906.5 575.6 909 571.15
L 904.7 568.25
Q 902.65 571.85 900 573.65 897.3 575.45 894 575.45 889.15 575.45 886.1 572.2 883.1 568.9 883.1 563.6
L 883.1 563.1 909.2 563.1 909.2 562
Q 909.2 553.9 904.95 549.2 900.65 544.5 893.35 544.5 886.1 544.5 881.5 549.45
M 883.1 558.55
Q 883.5 554.4 886.25 551.95 889 549.45 893.1 549.45 897.65 549.45 900.25 551.85 902.85 554.15 903.15 558.55
L 883.1 558.55
M 814.9 578.75
L 814.9 545.75 809.2 545.75 809.2 578.75 814.9 578.75
M 830.45 555.95
Q 830.9 554.3 831.95 553 833.3 551.3 835.4 550.4 837.45 549.45 840 549.45 844.4 549.45 846.5 551.9 848.6 554.3 848.6 559.3
L 848.6 578.75 854.35 578.75 854.35 556.3
Q 854.35 550.8 851.1 547.7 847.8 544.6 841.95 544.6 838.05 544.6 835.05 546.15 832.05 547.7 829.95 550.85
L 829.95 545.75 824.4 545.75 824.4 578.75 830 578.75 830 561.7
Q 830 557.6 830.45 555.95
M 814.95 527
Q 813.7 525.75 812 525.75 810.3 525.75 809.1 527 807.85 528.2 807.85 529.9 807.85 531.65 809.1 532.85 810.3 534.05 812 534.05 813.75 534.05 814.95 532.85 816.1 531.65 816.1 529.95 816.1 528.2 814.95 527
M 869.65 532.5
L 863.9 532.5 863.9 545.75 857.85 545.75 857.85 550.4 863.9 550.4 863.9 578.75 869.65 578.75 869.65 550.4 875.7 550.4 875.7 545.75 869.65 545.75 869.65 532.5
M 439 562
L 439 545.75 433.1 545.75 433.1 565
Q 433.1 572.45 436.9 576.3 440.75 580.15 448.1 580.15 455.5 580.15 459.35 576.35 463.15 572.5 463.15 565
L 463.15 545.75 457.4 545.75 457.4 562
Q 457.4 569.15 455.35 571.95 453.25 574.75 448.25 574.75 443.25 574.75 441.15 571.95 439 569.1 439 562
M 568.35 531.95
L 583.25 531.95 583.25 578.75 589.6 578.75 589.6 531.95 604.45 531.95 604.45 526 568.35 526 568.35 531.95
M 645.65 527.05
L 641.45 527.05 641.45 547 645.65 547 645.65 527.05
M 622.05 524.75
Q 615.55 524.75 611.35 528.4 607.2 532.1 607.2 537.7 607.2 542.55 609.75 546 612.35 549.45 617.6 551.65
L 624 554.4
Q 628.1 556.2 630.15 558.8 632.2 561.4 632.2 564.95 632.2 569.3 629.25 572.05 626.35 574.75 621.65 574.75 617.65 574.75 615 572.3 612.35 569.8 611.2 565
L 605.5 567.85
Q 606.95 573.7 611.2 576.9 615.4 580.1 621.65 580.1 629.25 580.1 633.9 575.65 638.55 571.2 638.55 563.9 638.55 558.95 635.95 555.3 633.3 551.65 628.15 549.45
L 620.6 546.15
Q 617 544.55 615.25 542.5 613.5 540.45 613.5 537.65 613.5 534.3 615.8 532.1 618 529.95 621.55 529.95 624.35 529.95 626.55 531.45 628.75 532.95 630.5 536
L 635.7 532.7
Q 633.75 528.75 630.3 526.75 626.8 524.75 622.05 524.75
M 540.4 550.45
Q 542.3 551.7 543.35 553.95
L 547.9 551.15
Q 546.55 548 543.5 546.3 540.45 544.6 536.15 544.6 530.95 544.6 527.75 547.35 524.5 550.15 524.5 554.55 524.5 560.75 536.5 564.9 537.15 565.15 537.45 565.25 540.3 566.2 541.5 567.35 542.65 568.5 542.65 570.25 542.65 572.5 540.95 573.85 539.2 575.2 536.45 575.2 533.6 575.2 531.5 573.9 529.4 572.6 528.05 569.95
L 523.2 573.2
Q 525.15 576.7 528.4 578.45 531.6 580.15 536.25 580.15 541.6 580.15 544.95 577.25 548.25 574.35 548.25 569.65 548.25 566.05 546.2 563.85 544.05 561.6 538.7 559.85 537.95 559.65 536.75 559.25 530.2 557.2 530.2 554.15 530.2 552 531.75 550.65 533.3 549.25 535.8 549.25 538.4 549.25 540.4 550.45
M 502.3 545.75
L 496.7 545.75 496.7 551.95
Q 494.85 548.3 491.8 546.45 488.75 544.6 484.6 544.6 477.55 544.6 473.3 549.4 469.1 554.2 469.1 562.35 469.1 570.4 473.45 575.3 477.8 580.15 484.9 580.15 488.7 580.15 491.8 578.3 494.85 576.35 496.85 572.75
L 496.85 578.75 502.3 578.75 502.3 545.75
M 493.8 553.6
Q 496.85 557 496.85 562.55 496.85 568.25 494 571.4 491.1 574.55 486.05 574.55 480.8 574.55 477.95 571.3 475.1 568.05 475.1 562.05 475.1 556.45 477.9 553.3 480.75 550.15 485.85 550.15 490.75 550.15 493.8 553.6
M 517.2 545.75
L 511.5 545.75 511.5 578.75 517.2 578.75 517.2 545.75
M 511.4 527
Q 510.15 528.2 510.15 529.9 510.15 531.65 511.4 532.85 512.6 534.05 514.3 534.05 516.05 534.05 517.25 532.85 518.4 531.65 518.4 529.95 518.4 528.2 517.25 527 516 525.75 514.3 525.75 512.6 525.75 511.4 527
M 728.6 563.1
L 728.6 562
Q 728.6 553.9 724.35 549.2 720.05 544.5 712.75 544.5 705.5 544.5 700.9 549.45 696.3 554.4 696.3 562.15 696.3 570.2 700.95 575.2 705.6 580.15 713.1 580.15 718.2 580.15 722.05 577.9 725.9 575.6 728.4 571.15
L 724.1 568.25
Q 722.05 571.85 719.4 573.65 716.7 575.45 713.4 575.45 708.55 575.45 705.5 572.2 702.5 568.9 702.5 563.6
L 702.5 563.1 728.6 563.1
M 719.65 551.85
Q 722.25 554.15 722.55 558.55
L 702.5 558.55
Q 702.9 554.4 705.65 551.95 708.4 549.45 712.5 549.45 717.05 549.45 719.65 551.85
M 669.05 553.95
L 673.6 551.15
Q 672.25 548 669.2 546.3 666.15 544.6 661.85 544.6 656.65 544.6 653.45 547.35 650.2 550.15 650.2 554.55 650.2 560.75 662.2 564.9 662.85 565.15 663.15 565.25 666 566.2 667.2 567.35 668.35 568.5 668.35 570.25 668.35 572.5 666.65 573.85 664.9 575.2 662.15 575.2 659.3 575.2 657.2 573.9 655.1 572.6 653.75 569.95
L 648.9 573.2
Q 650.85 576.7 654.1 578.45 657.3 580.15 661.95 580.15 667.3 580.15 670.65 577.25 673.95 574.35 673.95 569.65 673.95 566.05 671.9 563.85 669.75 561.6 664.4 559.85 663.65 559.65 662.45 559.25 655.9 557.2 655.9 554.15 655.9 552 657.45 550.65 659 549.25 661.5 549.25 664.1 549.25 666.1 550.45 668 551.7 669.05 553.95
M 391.35 562.35
Q 391.35 570.55 395.6 575.35 399.8 580.15 406.9 580.15 411 580.15 414.05 578.3 417.1 576.45 418.95 572.75
L 418.95 594.8 424.55 594.8 424.55 545.75 419.1 545.75 419.1 551.95
Q 417.2 548.4 414.1 546.5 411 544.6 407.15 544.6 400 544.6 395.65 549.45 391.35 554.3 391.35 562.35
M 397.25 563.05
Q 397.25 556.95 400.15 553.5 403 550.05 408.05 550.05 413.2 550.05 416.15 553.3 419.1 556.6 419.1 562.35 419.1 567.9 416.05 571.25 412.95 574.6 407.9 574.6 402.9 574.6 400.1 571.55 397.25 568.5 397.25 563.05
M 320.15 550.85
L 320.15 545.75 314.6 545.75 314.6 578.75 320.05 578.75 320.05 561.7
Q 320.05 557.55 320.5 555.9 320.9 554.25 321.8 553 323.15 551.3 325.15 550.4 327.1 549.45 329.35 549.45 333.55 549.45 335.55 551.9 337.55 554.3 337.55 559.3
L 337.55 578.75 343 578.75 343 561.7
Q 343 557.75 343.45 556 343.9 554.3 344.85 553 346.2 551.3 348.15 550.4 350.05 549.45 352.3 549.45 356.5 549.45 358.5 551.9 360.55 554.3 360.55 559.3
L 360.55 578.75 366.1 578.75 366.1 556.3
Q 366.1 550.8 363 547.7 359.9 544.6 354.4 544.6 350.6 544.6 347.7 546.25 344.8 547.9 342.65 551.3 341.2 548 338.4 546.3 335.6 544.6 331.6 544.6 327.9 544.6 325.05 546.15 322.2 547.7 320.15 550.85
M 269 546.85
Q 266.7 545.75 264.1 545.15 261.45 544.6 258.7 544.6 251.2 544.6 246.35 549.65 241.55 554.65 241.55 562.55 241.55 570.45 246.2 575.35 250.85 580.15 258.5 580.15 261.75 580.15 264.55 579.5 267.35 578.8 269.55 577.5
L 269.55 570.95
Q 266.85 572.9 264.4 573.8 261.95 574.7 259.4 574.7 254.3 574.7 250.95 571.25 247.6 567.85 247.6 562.75 247.6 557 250.95 553.5 254.3 550.05 259.85 550.05 262.2 550.05 264.5 550.8 266.85 551.5 269 552.9
L 269 546.85
M 272.35 562.35
Q 272.35 566 273.7 569.15 275 572.35 277.6 574.95 280.15 577.45 283.4 578.8 286.65 580.15 290.3 580.15 293.85 580.15 297.1 578.8 300.35 577.4 303 574.8 305.55 572.35 306.85 569.15 308.2 565.95 308.2 562.35 308.2 558.75 306.85 555.55 305.55 552.3 303 549.8 300.35 547.25 297.15 545.9 293.9 544.6 290.3 544.6 286.6 544.6 283.4 545.9 280.15 547.2 277.6 549.75 275 552.25 273.7 555.5 272.35 558.7 272.35 562.35
M 278.35 562.35
Q 278.35 557.15 281.85 553.5 285.3 549.9 290.3 549.9 295.25 549.9 298.7 553.5 302.15 557.15 302.15 562.35 302.15 567.6 298.7 571.2 295.25 574.8 290.3 574.8 285.3 574.8 281.85 571.2 278.35 567.6 278.35 562.35
M 1016.9 447.35
L 1011.2 447.35 1011.2 496.4 1016.9 496.4 1016.9 447.35
M 1004.9 464.7
L 1004.9 463.6
Q 1004.9 455.5 1000.65 450.8 996.35 446.1 989.05 446.1 981.8 446.1 977.2 451.05 972.6 456 972.6 463.75 972.6 471.8 977.25 476.8 981.9 481.75 989.4 481.75 994.5 481.75 998.35 479.5 1002.2 477.2 1004.7 472.75
L 1000.4 469.85
Q 998.35 473.45 995.7 475.25 993 477.05 989.7 477.05 984.85 477.05 981.8 473.8 978.8 470.5 978.8 465.2
L 978.8 464.7 1004.9 464.7
M 995.95 453.45
Q 998.55 455.75 998.85 460.15
L 978.8 460.15
Q 979.2 456 981.95 453.55 984.7 451.05 988.8 451.05 993.35 451.05 995.95 453.45
M 1016.95 428.6
Q 1015.7 427.35 1014 427.35 1012.3 427.35 1011.1 428.6 1009.85 429.8 1009.85 431.5 1009.85 433.25 1011.1 434.45 1012.3 435.65 1014 435.65 1015.75 435.65 1016.95 434.45 1018.1 433.25 1018.1 431.55 1018.1 429.8 1016.95 428.6
M 1057.1 480.35
L 1057.1 447.35 1051.5 447.35 1051.5 453.55
Q 1049.65 449.9 1046.6 448.05 1043.55 446.2 1039.4 446.2 1032.35 446.2 1028.1 451 1023.9 455.8 1023.9 463.95 1023.9 472 1028.25 476.9 1032.6 481.75 1039.7 481.75 1043.5 481.75 1046.6 479.9 1049.65 477.95 1051.65 474.35
L 1051.65 480.35 1057.1 480.35
M 1048.6 455.2
Q 1051.65 458.6 1051.65 464.15 1051.65 469.85 1048.8 473 1045.9 476.15 1040.85 476.15 1035.6 476.15 1032.75 472.9 1029.9 469.65 1029.9 463.65 1029.9 458.05 1032.7 454.9 1035.55 451.75 1040.65 451.75 1045.55 451.75 1048.6 455.2
M 939.25 447.35
L 955.55 482.4 971.8 447.35 965.45 447.35 955.5 470.4 945.6 447.35 939.25 447.35
M 630 450.85
Q 632.6 450.85 634.6 452.05 636.5 453.3 637.55 455.55
L 642.1 452.75
Q 640.75 449.6 637.7 447.9 634.65 446.2 630.35 446.2 625.15 446.2 621.95 448.95 618.7 451.75 618.7 456.15 618.7 462.35 630.7 466.5 631.35 466.75 631.65 466.85 634.5 467.8 635.7 468.95 636.85 470.1 636.85 471.85 636.85 474.1 635.15 475.45 633.4 476.8 630.65 476.8 627.8 476.8 625.7 475.5 623.6 474.2 622.25 471.55
L 617.4 474.8
Q 619.35 478.3 622.6 480.05 625.8 481.75 630.45 481.75 635.8 481.75 639.15 478.85 642.45 475.95 642.45 471.25 642.45 467.65 640.4 465.45 638.25 463.2 632.9 461.45 632.15 461.25 630.95 460.85 624.4 458.8 624.4 455.75 624.4 453.6 625.95 452.25 627.5 450.85 630 450.85
M 588.35 463.6
L 588.35 447.35 582.45 447.35 582.45 466.6
Q 582.45 474.05 586.25 477.9 590.1 481.75 597.45 481.75 604.85 481.75 608.7 477.95 612.5 474.1 612.5 466.6
L 612.5 447.35 606.75 447.35 606.75 463.6
Q 606.75 470.75 604.7 473.55 602.6 476.35 597.6 476.35 592.6 476.35 590.5 473.55 588.35 470.7 588.35 463.6
M 677.95 464.7
L 677.95 463.6
Q 677.95 455.5 673.7 450.8 669.4 446.1 662.1 446.1 654.85 446.1 650.25 451.05 645.65 456 645.65 463.75 645.65 471.8 650.3 476.8 654.95 481.75 662.45 481.75 667.55 481.75 671.4 479.5 675.25 477.2 677.75 472.75
L 673.45 469.85
Q 671.4 473.45 668.75 475.25 666.05 477.05 662.75 477.05 657.9 477.05 654.85 473.8 651.85 470.5 651.85 465.2
L 651.85 464.7 677.95 464.7
M 669 453.45
Q 671.6 455.75 671.9 460.15
L 651.85 460.15
Q 652.25 456 655 453.55 657.75 451.05 661.85 451.05 666.4 451.05 669 453.45
M 733.05 457.9
Q 733.05 452.4 729.8 449.3 726.5 446.2 720.65 446.2 716.75 446.2 713.75 447.75 710.75 449.3 708.65 452.45
L 708.65 447.35 703.1 447.35 703.1 480.35 708.7 480.35 708.7 463.3
Q 708.7 459.2 709.15 457.55 709.6 455.9 710.65 454.6 712 452.9 714.1 452 716.15 451.05 718.7 451.05 723.1 451.05 725.2 453.5 727.3 455.9 727.3 460.9
L 727.3 480.35 733.05 480.35 733.05 457.9
M 766.8 447.35
L 766.8 453.55
Q 764.95 449.9 761.9 448.05 758.85 446.2 754.7 446.2 747.65 446.2 743.4 451 739.2 455.8 739.2 463.95 739.2 472 743.55 476.9 747.9 481.75 755 481.75 758.8 481.75 761.9 479.9 764.95 477.95 766.95 474.35
L 766.95 480.35 772.4 480.35 772.4 447.35 766.8 447.35
M 763.9 455.2
Q 766.95 458.6 766.95 464.15 766.95 469.85 764.1 473 761.2 476.15 756.15 476.15 750.9 476.15 748.05 472.9 745.2 469.65 745.2 463.65 745.2 458.05 748 454.9 750.85 451.75 755.95 451.75 760.85 451.75 763.9 455.2
M 831.5 433.55
L 831.5 427.6 795.4 427.6 795.4 433.55 810.3 433.55 810.3 480.35 816.65 480.35 816.65 433.55 831.5 433.55
M 862.8 434.3
Q 860.85 430.35 857.4 428.35 853.9 426.35 849.15 426.35 842.65 426.35 838.45 430 834.3 433.7 834.3 439.3 834.3 444.15 836.85 447.6 839.45 451.05 844.7 453.25
L 851.1 456
Q 855.2 457.8 857.25 460.4 859.3 463 859.3 466.55 859.3 470.9 856.35 473.65 853.45 476.35 848.75 476.35 844.75 476.35 842.1 473.9 839.45 471.4 838.3 466.6
L 832.6 469.45
Q 834.05 475.3 838.3 478.5 842.5 481.7 848.75 481.7 856.35 481.7 861 477.25 865.65 472.8 865.65 465.5 865.65 460.55 863.05 456.9 860.4 453.25 855.25 451.05
L 847.7 447.75
Q 844.1 446.15 842.35 444.1 840.6 442.05 840.6 439.25 840.6 435.9 842.9 433.7 845.1 431.55 848.65 431.55 851.45 431.55 853.65 433.05 855.85 434.55 857.6 437.6
L 862.8 434.3
M 919.55 464.7
L 919.55 463.6
Q 919.55 455.5 915.3 450.8 911 446.1 903.7 446.1 896.45 446.1 891.85 451.05 887.25 456 887.25 463.75 887.25 471.8 891.9 476.8 896.55 481.75 904.05 481.75 909.15 481.75 913 479.5 916.85 477.2 919.35 472.75
L 915.05 469.85
Q 913 473.45 910.35 475.25 907.65 477.05 904.35 477.05 899.5 477.05 896.45 473.8 893.45 470.5 893.45 465.2
L 893.45 464.7 919.55 464.7
M 903.45 451.05
Q 908 451.05 910.6 453.45 913.2 455.75 913.5 460.15
L 893.45 460.15
Q 893.85 456 896.6 453.55 899.35 451.05 903.45 451.05
M 571.4 476.4
Q 573.95 473.95 575.25 470.75 576.6 467.55 576.6 463.95 576.6 460.35 575.25 457.15 573.95 453.9 571.4 451.4 568.75 448.85 565.55 447.5 562.3 446.2 558.7 446.2 555 446.2 551.8 447.5 548.55 448.8 546 451.35 543.4 453.85 542.1 457.1 540.75 460.3 540.75 463.95 540.75 467.6 542.1 470.75 543.4 473.95 546 476.55 548.55 479.05 551.8 480.4 555.05 481.75 558.7 481.75 562.25 481.75 565.5 480.4 568.75 479 571.4 476.4
M 567.1 455.1
Q 570.55 458.75 570.55 463.95 570.55 469.2 567.1 472.8 563.65 476.4 558.7 476.4 553.7 476.4 550.25 472.8 546.75 469.2 546.75 463.95 546.75 458.75 550.25 455.1 553.7 451.5 558.7 451.5 563.65 451.5 567.1 455.1
M 523.2 446.2
Q 519.4 446.2 516.5 447.85 513.6 449.5 511.45 452.9 510 449.6 507.2 447.9 504.4 446.2 500.4 446.2 496.7 446.2 493.85 447.75 491 449.3 488.95 452.45
L 488.95 447.35 483.4 447.35 483.4 480.35 488.85 480.35 488.85 463.3
Q 488.85 459.15 489.3 457.5 489.7 455.85 490.6 454.6 491.95 452.9 493.95 452 495.9 451.05 498.15 451.05 502.35 451.05 504.35 453.5 506.35 455.9 506.35 460.9
L 506.35 480.35 511.8 480.35 511.8 463.3
Q 511.8 459.35 512.25 457.6 512.7 455.9 513.65 454.6 515 452.9 516.95 452 518.85 451.05 521.1 451.05 525.3 451.05 527.3 453.5 529.35 455.9 529.35 460.9
L 529.35 480.35 534.9 480.35 534.9 457.9
Q 534.9 452.4 531.8 449.3 528.7 446.2 523.2 446.2
M 433 447.5
Q 429.75 448.8 427.2 451.35 424.6 453.85 423.3 457.1 421.95 460.3 421.95 463.95 421.95 467.6 423.3 470.75 424.6 473.95 427.2 476.55 429.75 479.05 433 480.4 436.25 481.75 439.9 481.75 443.45 481.75 446.7 480.4 449.95 479 452.6 476.4 455.15 473.95 456.45 470.75 457.8 467.55 457.8 463.95 457.8 460.35 456.45 457.15 455.15 453.9 452.6 451.4 449.95 448.85 446.75 447.5 443.5 446.2 439.9 446.2 436.2 446.2 433 447.5
M 431.45 455.1
Q 434.9 451.5 439.9 451.5 444.85 451.5 448.3 455.1 451.75 458.75 451.75 463.95 451.75 469.2 448.3 472.8 444.85 476.4 439.9 476.4 434.9 476.4 431.45 472.8 427.95 469.2 427.95 463.95 427.95 458.75 431.45 455.1
M 399.4 464.7
L 399.4 463.6
Q 399.4 455.5 395.15 450.8 390.85 446.1 383.55 446.1 376.3 446.1 371.7 451.05 367.1 456 367.1 463.75 367.1 471.8 371.75 476.8 376.4 481.75 383.9 481.75 389 481.75 392.85 479.5 396.7 477.2 399.2 472.75
L 394.9 469.85
Q 392.85 473.45 390.2 475.25 387.5 477.05 384.2 477.05 379.35 477.05 376.3 473.8 373.3 470.5 373.3 465.2
L 373.3 464.7 399.4 464.7
M 390.45 453.45
Q 393.05 455.75 393.35 460.15
L 373.3 460.15
Q 373.7 456 376.45 453.55 379.2 451.05 383.3 451.05 387.85 451.05 390.45 453.45
M 356.1 452.05
Q 358 453.3 359.05 455.55
L 363.6 452.75
Q 362.25 449.6 359.2 447.9 356.15 446.2 351.85 446.2 346.65 446.2 343.45 448.95 340.2 451.75 340.2 456.15 340.2 462.35 352.2 466.5 352.85 466.75 353.15 466.85 356 467.8 357.2 468.95 358.35 470.1 358.35 471.85 358.35 474.1 356.65 475.45 354.9 476.8 352.15 476.8 349.3 476.8 347.2 475.5 345.1 474.2 343.75 471.55
L 338.9 474.8
Q 340.85 478.3 344.1 480.05 347.3 481.75 351.95 481.75 357.3 481.75 360.65 478.85 363.95 475.95 363.95 471.25 363.95 467.65 361.9 465.45 359.75 463.2 354.4 461.45 353.65 461.25 352.45 460.85 345.9 458.8 345.9 455.75 345.9 453.6 347.45 452.25 349 450.85 351.5 450.85 354.1 450.85 356.1 452.05
M 318.35 455.75
Q 318.35 453.6 319.9 452.25 321.45 450.85 323.95 450.85 326.55 450.85 328.55 452.05 330.45 453.3 331.5 455.55
L 336.05 452.75
Q 334.7 449.6 331.65 447.9 328.6 446.2 324.3 446.2 319.1 446.2 315.9 448.95 312.65 451.75 312.65 456.15 312.65 462.35 324.65 466.5 325.3 466.75 325.6 466.85 328.45 467.8 329.65 468.95 330.8 470.1 330.8 471.85 330.8 474.1 329.1 475.45 327.35 476.8 324.6 476.8 321.75 476.8 319.65 475.5 317.55 474.2 316.2 471.55
L 311.35 474.8
Q 313.3 478.3 316.55 480.05 319.75 481.75 324.4 481.75 329.75 481.75 333.1 478.85 336.4 475.95 336.4 471.25 336.4 467.65 334.35 465.45 332.2 463.2 326.85 461.45 326.1 461.25 324.9 460.85 318.35 458.8 318.35 455.75
M 276.95 451
Q 272.75 455.8 272.75 463.95 272.75 472 277.1 476.9 281.45 481.75 288.55 481.75 292.35 481.75 295.45 479.9 298.5 477.95 300.5 474.35
L 300.5 480.35 305.95 480.35 305.95 447.35 300.35 447.35 300.35 453.55
Q 298.5 449.9 295.45 448.05 292.4 446.2 288.25 446.2 281.2 446.2 276.95 451
M 278.75 463.65
Q 278.75 458.05 281.55 454.9 284.4 451.75 289.5 451.75 294.4 451.75 297.45 455.2 300.5 458.6 300.5 464.15 300.5 469.85 297.65 473 294.75 476.15 289.7 476.15 284.45 476.15 281.6 472.9 278.75 469.65 278.75 463.65
M 274.6 442.1
Q 274.6 438.3 273.15 435.15 271.75 432 269.2 430.2 267.2 428.8 264.45 428.2 261.7 427.6 255.9 427.6
L 244.85 427.6 244.85 480.35 250.95 480.35 250.95 456.65 255.9 456.65
Q 261.75 456.65 264.5 456.05 267.2 455.45 269.2 454 271.75 452.2 273.15 449.05 274.6 445.95 274.6 442.1
M 250.95 433.3
L 254.15 433.3
Q 262.05 433.3 264.95 435.35 267.8 437.45 267.8 442.45 267.8 447.2 265 449.1 262.2 451 254.15 451
L 250.95 451 250.95 433.3 Z"/>
</g>
</defs>

<g transform="matrix( 12.100875854492188, 0, 0, 8.482864379882812, -3185.35,-160.55) ">
<use xlink:href="#Layer0_0_MEMBER_0_FILL"/>
</g>

<g transform="matrix( 8.482864379882812, 0, 0, 8.482864379882812, 481.95,109) ">
<g transform="matrix( 1, 0, 0, 1, 0,0) ">
<use filter="url(#Filter_1)" xlink:href="#flash0_ai_Layer_2__Path__0_Layer0_0_FILL"/>
</g>
</g>

<g transform="matrix( 1, 0, 0, 1, 0,0) ">
<use xlink:href="#Layer0_0_MEMBER_2_FILL"/>
</g>
</svg>
